<?xml version="1.0" encoding="utf-8"?>
<!-- Generator: Adobe Illustrator 15.0.0, SVG Export Plug-In . SVG Version: 6.00 Build 0)  -->
<!DOCTYPE svg PUBLIC "-//W3C//DTD SVG 1.1//EN" "http://www.w3.org/Graphics/SVG/1.1/DTD/svg11.dtd">
<svg version="1.1" id="Слой_1" xmlns="http://www.w3.org/2000/svg" xmlns:xlink="http://www.w3.org/1999/xlink" x="0px" y="0px"
	 width="120.891px" height="148.104px" viewBox="0 -18.896 120.891 148.104" enable-background="new 0 -18.896 120.891 148.104"
	 xml:space="preserve">
<g>
	<path fill="#E38D6C" d="M120.89,129.208H0c0.212-2.146,1.311-9.578,6.744-19.09c6.465-11.316,35.261-9.705,36.231-11.316
		c0.417-0.699,0.659-3.543,0.806-6.531c0.165-3.885,0.165-8.027,0.165-8.027l16.499,4.862l16.5-4.862c0,0,0,4.098,0.164,7.959
		c0.146,3.008,0.379,5.893,0.805,6.6c0.972,1.611,29.769,0,36.231,11.316C119.581,119.629,120.677,127.063,120.89,129.208"/>
	<path fill="#006B88" d="M120.89,129.208H0c0.212-2.146,1.311-9.578,6.744-19.09c5.465-9.57,26.905-9.9,33.979-10.744
		c1.291-0.156,2.105-0.32,2.252-0.572c0,0,17.149,22.322,34.938,0c0.166,0.281,1.187,0.466,2.787,0.641
		c7.56,0.807,28.105,1.34,33.444,10.676C119.581,119.629,120.677,127.063,120.89,129.208"/>
	<path fill="#27BED1" d="M80.701,99.442c-14.043,19.469-30.708,8.803-39.977-0.068c1.29-0.154,2.105-0.319,2.252-0.572
		c0,0,17.148,22.322,34.938,0C78.08,99.083,79.1,99.267,80.701,99.442"/>
	<path fill="#E38D6C" d="M32.205,50.564c0,0-7.646-12.921-10.811-1.845c-3.165,11.074,4.48,16.348,9.491,15.294
		C35.896,62.958,32.205,50.564,32.205,50.564"/>
	<path fill="#CD6D4E" d="M31.281,52.673c0,0-5.273-8.174-7.119-4.878c-1.845,3.297-1.319,7.514-1.319,7.514s1.056-4.614,4.482-1.978
		c0,0-3.294,7.383,3.43,5.276C30.755,58.607,33.523,56.365,31.281,52.673"/>
	<path fill="#E38D6C" d="M87.116,50.564c0,0,7.647-12.919,10.812-1.845c3.165,11.074-4.482,16.348-9.492,15.293
		C83.425,62.957,87.116,50.564,87.116,50.564"/>
	<path fill="#CD6D4E" d="M87.225,53.534c0,0,5.271-8.175,7.118-4.879c1.847,3.297,1.318,7.514,1.318,7.514s-1.055-4.613-4.481-1.977
		c0,0,3.295,7.384-3.43,5.275C87.751,59.467,84.983,57.226,87.225,53.534"/>
	<path fill="#F9B39A" d="M87.264,71.654c-0.572,9.503-11.404,16.53-18.489,19.675c-7.083,3.154-12.985,1.582-12.985,1.582
		C29.023,85.04,29.808,66.929,30.992,61.814c1.185-5.116-0.446-14.956,2.699-26.758c0.427-1.602,1.038-3.048,1.785-4.349
		c4.795-8.365,14.976-11.055,14.976-11.055c17.693-11.423,30.078-0.193,34.153,9.037c0.282,0.621,0.524,1.232,0.718,1.835
		C88.477,39.967,87.915,60.999,87.264,71.654"/>
	<path fill="#A45825" d="M31.653,23.095c-0.324,0.97-1.391,20.657-0.372,29.578l9.429-24.725L31.653,23.095z"/>
	<path fill="#B46A28" d="M82.768,25.04c0,0-9.871,3.989-26.739,7.735c-1.718,0.378-3.504,0.757-5.367,1.136
		c-2.543,0.504-5.212,0.999-8.007,1.475c-11.084,1.873-16.14-1.378-18.344-5.561c-0.185-0.34-0.35-0.689-0.485-1.039
		c-2.066-5.027-0.582-10.87-0.582-10.87c0.582,1.233,1.863,1.35,3.698,0.699c0.321-0.107,0.67-0.243,1.029-0.408
		C34.6,15.286,46.867,5.065,59.475,0.775c1.735-0.592,3.356-0.825,4.881-0.767c0.807,0.03,1.583,0.136,2.329,0.331
		c2.484,0.611,4.64,2.028,6.494,3.882c0.271,0.281,0.531,0.562,0.795,0.854c1.603,1.796,2.951,3.921,4.077,6.085
		c0.319,0.611,0.618,1.233,0.901,1.844C81.624,18.809,82.768,24.477,82.768,25.04"/>
	<path fill="#DF883B" d="M73.974,5.075c-2.427,2.747-4.899,5.455-7.602,8.027c-7.462,7.104-16.119,13.267-26.192,15.975
		c-5.028,1.339-10.842,2.174-15.869,0.747c-0.185-0.34-0.35-0.689-0.485-1.039c0.427,0.127,0.864,0.233,1.331,0.331
		c8.987,1.844,19.041-1.427,26.748-6.018c8.278-4.94,15.169-11.481,21.274-18.877C73.452,4.502,73.711,4.783,73.974,5.075"/>
	<path fill="#DF883B" d="M66.686,0.339C62.125,7.841,56.137,14.46,49.197,18.75c-5.639,3.484-11.948,4.785-18.354,2.659
		c-1.746-0.582-3.008-1.563-3.9-2.795c0.32-0.107,0.669-0.243,1.028-0.408c0.553,0.622,1.252,1.146,2.105,1.534
		c3.262,1.495,7.172,1.883,10.688,1.029c6.085-1.475,11.373-5.542,15.615-10.046c3.154-3.338,5.736-6.939,7.978-10.715
		C65.162,0.039,65.938,0.146,66.686,0.339"/>
	<path fill="#DF883B" d="M78.954,13.005c-4.514,5.29-9.59,10.104-14.617,14.015c-2.639,2.047-5.396,4.057-8.307,5.755
		c-1.718,0.378-3.504,0.757-5.367,1.135c5.552-2.426,10.57-5.949,15.112-9.958c4.436-3.921,8.561-8.191,12.278-12.791
		C78.372,11.772,78.671,12.394,78.954,13.005"/>
	<path fill="#A45825" d="M90.684,33.852c-0.076,0.74-0.161,1.48-0.247,2.201c-0.623,5.02-1.555,9.464-2.149,12.025
		c-0.156,0.664-0.287,1.202-0.381,1.593v0.01c-0.113,0.46-0.184,0.714-0.184,0.714l-0.183-1.257
		c-0.012-0.058-0.014-0.117-0.024-0.174c-0.411-3.154-1.955-7.216-3.939-11.363c-4.703-9.924-11.84-20.379-11.84-20.379
		c-1.346-4.972,2.229-7.23,5.143-8.227c0.529-0.189,1.039-0.321,1.492-0.431c1.082-0.255,1.846-0.325,1.846-0.325
		c0.545,0.004,1.061,0.037,1.558,0.111c0.576,0.089,1.113,0.21,1.623,0.39C91.122,11.294,91.732,23.355,90.684,33.852"/>
	<path fill="#CA7029" d="M88.288,48.078c-0.156,0.665-0.287,1.203-0.381,1.594c-0.134-0.239-0.266-0.469-0.391-0.707
		c-1.968-3.615-3.273-7.519-3.786-10.475c-0.048-0.3-0.106-0.59-0.153-0.889c-1.64-10.08-1.633-20.314-6.697-28.606
		c0.529-0.189,1.039-0.321,1.492-0.431c0.705,1.203,1.23,2.246,1.479,2.822c1.937,4.498,2.89,9.277,3.484,14.114
		c0.815,6.725,0.904,13.859,3.716,20.138C87.415,46.443,87.827,47.266,88.288,48.078"/>
	<path fill="#CA7029" d="M90.684,33.852c-0.076,0.74-0.161,1.48-0.247,2.201c-4.417-7.038-6.72-19.225-8.663-27.703
		c0.576,0.089,1.112,0.21,1.623,0.39c1.339,5.02,2.046,10.369,3.454,15.086C87.838,27.099,88.896,30.768,90.684,33.852"/>
	<path fill="#3B1312" d="M42.83,41.492c-3.042,1.846-4.791,6.358-3.022,9.267c0.085,0.142,0.39,0.084,0.366-0.083
		c-0.354-2.587,0.688-5.391,2.646-7.359c1.212-1.218,2.884-1.732,4.703-1.857c1.989-0.138,2.888,1.654,4.451,2.268
		c0.325,0.127,0.733-0.079,0.627-0.409C51.38,39.571,45.896,39.634,42.83,41.492"/>
	<path fill="#FFFFFF" d="M53.415,49.894c0,4.854-2.979,8.786-6.654,8.786c-3.673,0-6.652-3.932-6.652-8.786s2.979-8.789,6.652-8.789
		C50.436,41.105,53.415,45.04,53.415,49.894"/>
	<path fill="#0E79BF" d="M52.002,50.181c0,3.613-2.269,6.543-5.065,6.543c-2.796,0-5.064-2.93-5.064-6.543
		c0-3.613,2.269-6.544,5.064-6.544C49.733,43.637,52.002,46.568,52.002,50.181"/>
	<path fill="#3B1312" d="M51.199,50.258c0,3.049-1.859,5.521-4.153,5.521c-2.292,0-4.151-2.472-4.151-5.521
		c0-3.047,1.859-5.519,4.151-5.519C49.34,44.739,51.199,47.211,51.199,50.258"/>
	<path fill="#FFFFFF" d="M52.002,45.501c0,0.601-1.174,1.086-2.622,1.086c-1.444,0-2.62-0.485-2.62-1.086
		c0-0.602,1.176-1.085,2.62-1.085C50.829,44.417,52.002,44.899,52.002,45.501"/>
	<path fill="#3B1312" d="M76.625,41.492c3.043,1.846,4.793,6.358,3.023,9.267c-0.085,0.142-0.392,0.084-0.367-0.083
		c0.355-2.587-0.688-5.391-2.646-7.359c-1.211-1.218-2.883-1.732-4.701-1.857c-1.989-0.138-2.889,1.654-4.451,2.268
		c-0.326,0.127-0.733-0.079-0.627-0.409C68.075,39.571,73.559,39.634,76.625,41.492"/>
	<path fill="#FFFFFF" d="M78.871,49.894c0,4.854-2.979,8.786-6.653,8.786c-3.674,0-6.653-3.932-6.653-8.786s2.979-8.789,6.653-8.789
		C75.892,41.105,78.871,45.04,78.871,49.894"/>
	<path fill="#0E79BF" d="M77.458,50.181c0,3.613-2.269,6.543-5.064,6.543s-5.064-2.93-5.064-6.543c0-3.613,2.269-6.544,5.064-6.544
		S77.458,46.568,77.458,50.181"/>
	<path fill="#3B1312" d="M76.655,50.258c0,3.049-1.859,5.521-4.152,5.521s-4.151-2.472-4.151-5.521c0-3.047,1.858-5.519,4.151-5.519
		S76.655,47.211,76.655,50.258"/>
	<path fill="#FFFFFF" d="M77.458,45.501c0,0.601-1.174,1.086-2.622,1.086c-1.444,0-2.62-0.485-2.62-1.086
		c0-0.602,1.176-1.085,2.62-1.085C76.285,44.417,77.458,44.899,77.458,45.501"/>
	<path fill="#E38D6C" d="M59.538,45.656c0,0-1.967-1.966-2.361,5.116c-0.394,7.083,0,14.561,0,14.561s-4.722-2.755-3.147,1.181
		c0.85,2.127,2.85,3.211,4.962,3.776c1.842,0.49,3.193-0.131,4.401-1.31c0.56-0.546,3.479-3.505,2.56-4.428
		c-0.441-0.443-3.004,0.617-3.658,0.779C62.293,65.333,63.081,44.082,59.538,45.656"/>
	<path fill="#CD6D4E" d="M71.36,74.481c0,0-9.274,15.896-22.073,0.604c0,0,7.457-2.521,10.188-0.278l1.002,1.132
		C60.478,75.937,63.292,72.383,71.36,74.481"/>
	<path fill="#E38D6C" d="M71.36,74.481c0,0-9.274,15.896-22.073,0.604C49.287,75.083,61.823,80.827,71.36,74.481"/>
	<path fill="#7B3A1A" d="M55.592,37.492c0,2.591-4.489,1.132-10.027,1.132c-5.539,0-10.029,1.459-10.029-1.132
		c0-2.59,4.49-8.25,10.029-8.25C51.102,29.242,55.592,34.902,55.592,37.492"/>
	<path fill="#7B3A1A" d="M82.768,37.492c0,2.591-4.491,1.132-10.029,1.132c-5.539,0-10.029,1.459-10.029-1.132
		c0-2.59,4.49-8.25,10.029-8.25C78.277,29.242,82.768,34.902,82.768,37.492"/>
</g>
</svg>
