<?xml version="1.0" encoding="utf-8"?>
<!-- Generator: Adobe Illustrator 15.0.0, SVG Export Plug-In . SVG Version: 6.00 Build 0)  -->
<!DOCTYPE svg PUBLIC "-//W3C//DTD SVG 1.1//EN" "http://www.w3.org/Graphics/SVG/1.1/DTD/svg11.dtd">
<svg version="1.1" id="Слой_1" xmlns="http://www.w3.org/2000/svg" xmlns:xlink="http://www.w3.org/1999/xlink" x="0px" y="0px"
	 width="69.036px" height="127.563px" viewBox="0 -10.771 69.036 127.563" enable-background="new 0 -10.771 69.036 127.563"
	 xml:space="preserve">
<g>
	<path fill="#A45825" d="M49.924,73.613c-1.203-0.757-2.377-1.33-3.563-1.736c-0.01,0-0.01-0.01-0.01-0.01
		c-0.378-0.127-0.766-0.242-1.145-0.341v-0.01c-2.263-0.593-4.563-0.61-7.027-0.154c-0.059,0.009-0.105,0.019-0.165,0.028
		c-0.224-0.02-0.456-0.039-0.679-0.066c-0.737-0.06-1.465-0.138-2.166-0.281c-2.23-0.438-4.316-0.924-6.22-2.078h-0.01
		c-0.126-0.067-0.262-0.146-0.389-0.232c-0.028-0.049-0.078-0.077-0.125-0.105c-0.04-0.029-0.078-0.049-0.127-0.061
		c-0.106-0.076-0.224-0.145-0.33-0.23c0,0.008-0.01,0.008-0.01,0.019c-0.049-0.019-0.087-0.039-0.136-0.048
		c-0.203-0.049-0.408,0.059-0.514,0.232c-0.233,0.02-0.457,0.039-0.69,0.088c-2.97,0.494-5.891,2.863-8.094,4.678
		C15.791,75.552,13.568,78,14.5,81.707c0.571,2.312,2.261,4.135,4.483,5.563c0.534,0.35,1.106,0.68,1.699,0.98
		c2.096,1.067,4.482,1.873,6.831,2.484c0.544,0.145,1.089,0.271,1.622,0.389c2.64,0.602,5.125,0.951,6.93,1.154
		c1.775,0.194,3.707,0.281,5.658,0.155c0.514-0.029,1.02-0.067,1.533-0.127c1.688-0.193,3.349-0.554,4.871-1.125v-0.011
		c0.021,0,0.041-0.01,0.06-0.02l0.048-0.021c0.583-0.223,1.146-0.484,1.67-0.775c2.719-1.475,4.736-3.872,5.26-7.561
		C55.69,79.134,52.846,75.449,49.924,73.613"/>
	<path fill="#CA7029" d="M20.683,88.25c-0.593-0.301-1.165-0.631-1.699-0.979c0.233-6.368,3.718-13.22,7.637-18.646
		c0.234-0.049,0.459-0.067,0.691-0.088c0.105-0.175,0.311-0.281,0.514-0.231C23.42,74.283,20.323,81.25,20.683,88.25"/>
	<path fill="#CA7029" d="M28.941,68.962c-3.338,7.426-2.388,14.957,0.194,22.158c-0.533-0.117-1.078-0.242-1.622-0.388
		c-2.503-7.192-2.542-15.132,0.914-22.108c0.077-0.176,0.165-0.351,0.252-0.517c0.184-0.349,0.688-0.038,0.523,0.312
		c-0.087,0.185-0.175,0.369-0.252,0.543H28.941z"/>
	<path fill="#CA7029" d="M43.256,92.305c-0.514,0.06-1.02,0.098-1.532,0.127c0.397-3.921,0.039-7.871-1.33-11.996
		c-1.019-3.077-2.241-6.047-3.058-9.112c0.224,0.027,0.457,0.047,0.68,0.066c0.059-0.01,0.107-0.02,0.165-0.028
		c1.485,4.988,3.989,9.782,4.813,14.966C43.306,88.257,43.402,90.289,43.256,92.305"/>
	<path fill="#CA7029" d="M49.905,90.354l-1.67,0.776l-0.048,0.021l-0.06,0.029v-0.011c1.011-3.619,1.39-7.299,0.351-11.338
		c-0.748-2.959-1.747-5.733-3.271-8.307c0.379,0.098,0.767,0.215,1.145,0.34c0,0,0,0.01,0.011,0.01
		c0.671,0.972,1.3,1.94,1.757,2.922c1.135,2.465,1.873,5.279,2.096,7.988C50.411,85.268,50.353,87.861,49.905,90.354"/>
	<path fill="#E38D6C" d="M40.374,93.703c-4.026,3.35-12.413,0-12.413,0c0.699-1.388,1.117-2.959,1.34-4.58
		c0.029-0.146,0.048-0.291,0.058-0.438c0.155-1.262,0.205-2.533,0.175-3.773c-0.01-0.769-0.048-1.525-0.116-2.252
		c-0.311-3.787-1.116-6.736-1.116-6.736l10.734-0.33c-0.68,2.242-0.854,4.697-0.757,7.066c0.039,1.096,0.146,2.174,0.281,3.191
		c0.126,0.923,0.271,1.807,0.437,2.622c0.03,0.146,0.06,0.29,0.088,0.426C39.676,91.742,40.374,93.703,40.374,93.703"/>
	<path fill="#E38D6C" d="M62.154,116.792H7.405c-2.426-3.35-3.737-7.444-2-11.162c0,0,3.203-6.211,7.774-8.842
		c0.621-0.369,1.263-0.66,1.932-0.863c3.213-0.979,9.229-2.115,13.762-2.911c3.349-0.582,5.892-0.972,5.892-0.972
		s1.922,0.107,4.784,0.485c4.242,0.554,10.55,1.718,15.752,4.019c4.31,1.892,7.861,4.582,8.822,8.355
		C65.375,109.826,64.192,113.792,62.154,116.792"/>
	<path fill="#A7C1E1" d="M55.301,96.546c-0.883-0.389-1.814-0.805-2.756-1.232c-0.572-0.253-1.155-0.516-1.737-0.775
		c-2.3-1.011-4.658-2.01-6.832-2.756c-0.468-0.166-0.933-0.32-1.378-0.447c-1.165-0.358-2.252-0.621-3.223-0.748
		c-0.194,1.621-0.106,5.145-1.681,6.172c-1.192,0.787-2.766,0.904-4.202,0.613c-0.592-0.127-1.164-0.32-1.679-0.563
		c-0.117-0.06-0.232-0.117-0.341-0.175c-1.514-0.825-1.833-4.35-2.29-5.805c-1.727,0.301-3.707,0.971-5.677,1.728
		c-0.572,0.224-1.146,0.457-1.719,0.69c-1.533,0.641-3.019,1.28-4.31,1.803c-0.495,0.205-0.96,0.39-1.396,0.546
		c-0.35,0.126-0.67,0.241-0.971,0.329c-0.669,0.203-1.311,0.494-1.932,0.863c1.844,4.873,3.863,9.551,5.018,14.685
		c0.35,1.553,0.457,3.446,0.699,5.319h32.648c-0.078-0.428-0.155-0.834-0.203-1.213c-0.582-4.445,1.23-9.512,2.271-13.813
		C53.846,100.807,54.729,98.691,55.301,96.546"/>
	<path fill="#5D8DBB" d="M23.525,116.792h-1.872c-0.253-2.697-0.554-5.377-1.204-7.938c-1.153-4.522-2.873-8.872-4.367-13.258
		c0.437-0.156,0.901-0.341,1.396-0.546c0.603,1.234,1.185,2.478,1.651,3.748c1.125,3.145,2.096,6.375,2.881,9.627
		C22.681,111.203,23.146,113.998,23.525,116.792"/>
	<path fill="#5D8DBB" d="M30.601,116.792h-1.989c-0.504-2.737-1.116-5.444-1.873-8.125c-1.484-5.151-3.339-10.258-4.95-15.42
		c0.573-0.233,1.146-0.467,1.719-0.69c0.097,0.302,0.193,0.603,0.281,0.894c1.553,4.911,3.455,9.744,4.823,14.703
		C29.407,111.028,30.058,113.9,30.601,116.792"/>
	<path fill="#5D8DBB" d="M36.211,116.792h-1.485c-0.33-2.68-0.767-5.349-1.223-8.018c-0.688-3.97-1.146-7.979-1.688-11.967
		c0.515,0.242,1.087,0.436,1.679,0.563c0.438,3.105,0.796,6.213,1.378,9.221C35.493,109.862,35.822,113.328,36.211,116.792"/>
	<path fill="#5D8DBB" d="M43.976,91.783c-0.029,1.008-0.06,2.008-0.117,2.959c-0.194,3.416-0.465,6.844-0.455,10.268
		c0.011,3.902-0.146,7.854-0.06,11.783h-1.883c0-3.92-0.01-7.86,0.029-11.783c0.059-4.551,0.533-9.16,1.106-13.674
		C43.043,91.46,43.508,91.617,43.976,91.783"/>
	<path fill="#5D8DBB" d="M52.545,95.314c-1.066,4.494-1.883,9.036-2.437,13.666c-0.312,2.602-0.649,5.212-0.912,7.813h-2.368
		c0.416-2.834,0.951-5.608,1.32-8.084c0.688-4.697,1.426-9.512,2.658-14.17C51.39,94.798,51.973,95.061,52.545,95.314"/>
	<path fill="#E38D6C" d="M59.286,46.634c0.391-0.563,0.983-1.007,1.883-1.397c0.686-0.297,1.428-0.487,2.158-0.634
		c1.452-0.289,3.221-0.311,4.25,0.945c0.713,0.87,0.979,2.297,1.027,3.392c0.225,4.938-3.934,7.662-8.189,8.833
		c-0.805,0.22-2.209,1.035-2.811,0.069C56.581,56.198,58.063,48.403,59.286,46.634"/>
	<path fill="#CD6D4E" d="M59.271,50.363c0,0,5.222-4.836,5.931-2.165c0.711,2.671-0.429,5.564-0.429,5.564s0.089-3.462-2.817-2.216
		c0,0,0.994,5.831-3.388,3.114C58.567,54.661,57.012,52.571,59.271,50.363"/>
	<path fill="#E38D6C" d="M9.327,46.634c-0.39-0.563-0.983-1.007-1.881-1.397c-0.687-0.297-1.43-0.487-2.16-0.634
		c-1.452-0.289-3.221-0.311-4.25,0.945c-0.713,0.87-0.979,2.297-1.027,3.392c-0.224,4.938,3.934,7.662,8.19,8.833
		c0.805,0.22,2.209,1.035,2.81,0.069C12.032,56.198,10.551,48.403,9.327,46.634"/>
	<path fill="#CD6D4E" d="M9.343,50.363c0,0-5.221-4.836-5.93-2.165c-0.711,2.671,0.429,5.564,0.429,5.564S3.753,50.3,6.658,51.546
		c0,0-0.993,5.831,3.388,3.114C10.046,54.661,11.603,52.571,9.343,50.363"/>
	<path fill="#FBBE9F" d="M60.762,42.517c-0.094,0.951-0.221,1.911-0.348,2.881c-0.824,6.144-1.812,12.28-3.342,18.297
		c-2.88,11.338-16.912,16.914-21.908,16.531C9.404,76.767,8.062,59.08,8.249,57.161c0.305-3.009-0.221-6.272-0.416-9.273
		C7.73,46.29,7.49,44.65,7.263,43.01c-0.375-2.789-0.714-5.609-0.28-8.33C7,34.551,7.026,34.424,7.051,34.29
		c0.475-2.735,1.36-5.567,2.405-8.117c3.271-7.954,9.876-16.861,19.316-17.04c2.211-0.041,4.454,0.342,6.639,1.011
		c3.152,0.951,6.194,2.474,8.863,4.081c5.941,3.594,11.873,7.681,14.839,14.219C61.196,33.048,61.254,37.699,60.762,42.517"/>
	<path fill="#C81F4B" d="M63.256,55.719c-0.67-1.201-2.078-0.895-2.891-0.103c-0.422,0.411-0.744,0.957-0.957,1.544
		c-0.328-0.918-0.967-1.825-1.887-1.85c-1.791-0.045-2.568,1.594-2.477,3.184c0.113,1.99,1.707,3.395,2.748,4.929
		c0.688,1.017,1.519,1.436,2.49,0.509c1.02-0.972,1.687-1.87,2.383-3.065C63.441,59.539,64.067,57.177,63.256,55.719"/>
	<path fill="#C81F4B" d="M11.574,55.719c-0.67-1.201-2.078-0.895-2.89-0.103c-0.421,0.411-0.744,0.957-0.957,1.544
		c-0.328-0.918-0.967-1.825-1.887-1.85c-1.792-0.045-2.569,1.594-2.477,3.184c0.114,1.99,1.708,3.395,2.748,4.929
		c0.689,1.017,1.519,1.436,2.49,0.509c1.02-0.972,1.687-1.87,2.384-3.065C11.76,59.539,12.385,57.177,11.574,55.719"/>
	<path fill="#A45825" d="M40.2,14.817c-0.175-1.232-1.107-2.601-1.689-3.357c-0.697-0.903-1.543-1.688-2.514-2.292
		c-0.572-0.358-1.25-0.504-1.893-0.728c-0.039-0.223-0.146-0.445-0.358-0.602c-0.446-0.329-0.903-0.631-1.358-0.893
		c-0.447-0.271-0.903-0.505-1.359-0.709c-8.317-3.745-17.877,1.845-22.973,8.707c-3.194,4.28-5.795,9.802-6.349,15.149
		C0.99,36.887,3.648,42.264,5.872,48.465c0.193,0.554,0.63,0.922,1.232,0.942h0.242c0.815,0.028,1.484-0.835,1.241-1.621
		c-0.202-0.67-0.223-1.32-0.087-1.961c0.098-0.465,0.263-0.913,0.505-1.358c0.466-0.883,1.175-1.728,2.02-2.523
		c2.3-2.164,5.532-3.912,7.212-4.931c4.396-2.658,9.143-4.745,13.401-7.629c4.048-2.736,7.618-7.628,7.823-12.675
		c0.059-0.039,0.115-0.067,0.164-0.116c0.359-0.312,0.545-0.709,0.582-1.146C40.239,15.244,40.229,15.031,40.2,14.817"/>
	<path fill="#CA7029" d="M8.588,47.787c0.243,0.786-0.426,1.649-1.241,1.621H7.182C2.048,42.225,3.679,31.005,7.25,23.523
		c4.697-9.832,12.792-16.626,23.778-17.286c0.349-0.019,0.708-0.028,1.067-0.038c0.437-0.01,0.524,0.515,0.291,0.747
		c-0.067,0.078-0.165,0.126-0.291,0.126C21.323,7.402,12.501,14.38,8.259,24.115c-3.271,7.521-4.027,15.034-1.184,22.031
		C5.969,40.624,7.425,33.2,8.793,29.997c4.911-11.521,13.403-18.751,26.214-18.761c0.32,0,0.32,0.485,0,0.504
		c-9.831,0.438-18.479,5.776-23.002,14.598C9.26,31.695,6.483,39.876,8.501,45.826C8.365,46.466,8.386,47.117,8.588,47.787"/>
	<path fill="#CA7029" d="M40.346,15.438c-0.049,0-0.088,0-0.137,0.01c-5.405,0.33-11.162,4.658-15.247,7.969
		c-2.952,2.406-5.795,5.027-8.163,8.026c-2.417,3.067-4.843,6.647-5.774,10.501c-0.845,0.796-1.554,1.64-2.02,2.523
		c0.466-4.115,2.718-8.59,4.659-11.326c5.648-7.959,16.11-18.188,26.535-18.324h0.146C40.752,14.817,40.743,15.418,40.346,15.438"/>
	<path fill="#B46A28" d="M65.512,18.68c-1.797-3.349-4.697-6.483-7.629-9.104l-0.039-0.029c-1.854-1.66-3.707-3.096-5.299-4.242
		c-0.264-0.185-0.524-0.368-0.787-0.543c-8.045-5.348-18.614-5.863-27.679-3.174c-2.214,0.67-12.113,3.766-12.491,7.348
		c-0.039,0.281-0.011,0.572,0.087,0.863c0.136,0.389,0.321,0.718,0.544,1c0.087,0.106,0.185,0.213,0.282,0.3
		c0.358,0.341,0.785,0.593,1.261,0.787h0.01c0.873,0.368,1.884,0.544,2.834,0.737c3.038,0.631,5.688,2.641,8.163,4.61l1.543,1.242
		h0.009c0.263,0.213,0.524,0.417,0.786,0.611c3.135,2.397,4.63,6.065,6.959,9.124c2.231,2.93,5.038,5.375,8.192,7.288
		c2.892,1.747,6.066,3.058,9.423,3.513c2.312,0.32,6.047,4.146,8.124,5.766c0.688,0.533,1.193,0.825,1.406,0.68
		c0.138-0.088,0.303-0.216,0.486-0.369c0.719-0.602,1.688-1.611,1.969-2.349c0.34-0.389,0.672-0.786,0.99-1.193
		c0.428-0.555,0.826-1.136,1.184-1.718c0.662-1.039,1.224-2.126,1.681-3.243c0.302-0.728,0.563-1.475,0.776-2.23
		C69.792,29.104,69.092,23.396,65.512,18.68"/>
	<path fill="#DB8233" d="M68.297,34.355c-0.213,0.756-0.476,1.503-0.776,2.23c-0.767-3.163-1.901-6.22-3.774-9.064
		c-3.795-5.765-9.24-10.026-15.433-12.995C41.297,11.149,33.92,8.76,26.049,8.732c-4.911-0.02-9.346,0.999-13.83,2.067
		c-0.223-0.282-0.408-0.611-0.544-1c-0.098-0.291-0.126-0.582-0.087-0.863c6.075-3.281,11.559-5.465,18.751-6.183
		c7.008-0.689,14.801-0.845,21.419,2.009l6.086,4.785c-1.698-1.291-3.543-2.388-5.551-3.261c-6.871-2.989-14.588-3.3-21.955-2.436
		c-7.026,0.825-12.422,2.922-18.597,5.833c1.776-0.573,3.583-1.098,5.484-1.408c4.038-0.641,8.162-0.931,12.239-0.524
		c7.793,0.777,15.354,3.106,22.157,7.047C59.592,19.408,65.355,26.26,68.297,34.355"/>
	<path fill="#DB8233" d="M57.874,9.566c-0.01-0.007-0.021-0.014-0.029-0.021l0.039,0.03C57.883,9.566,57.883,9.566,57.874,9.566"/>
	<path fill="#DB8233" d="M65.84,39.829c-0.356,0.582-0.756,1.164-1.184,1.718c-3.279-9.133-9.744-17.228-18.013-22.129
		c-7.026-4.164-14.471-6.58-22.652-6.987c-3.154-0.155-6.775-0.681-10.221-0.544h-0.01c-0.476-0.194-0.902-0.446-1.261-0.786
		c4.348-0.631,9.151-0.156,13.131,0.184c8.24,0.699,16.102,2.951,23.012,7.62C55.806,23.746,62.417,31.316,65.84,39.829"/>
	<path fill="#DB8233" d="M24.769,17.234c3.154-0.06,6.317,0.214,9.56,1.329c5.755,1.98,11.162,5.357,15.5,9.648
		c4.881,4.823,9.006,10.568,11.869,16.876c-0.184,0.155-0.349,0.282-0.484,0.37c-0.215,0.146-0.719-0.146-1.407-0.68
		c-2.718-5.766-6.251-11.113-10.995-15.538c-5.01-4.668-11.201-8.911-18.023-10.23c-1.506-0.301-2.989-0.456-4.466-0.533h-0.009
		L24.769,17.234z"/>
	<g opacity="0.4">
		<g>
			<g>
				<defs>
					<rect id="SVGID_1_" x="14.381" y="54.289" width="39.065" height="6.375"/>
				</defs>
				<clipPath id="SVGID_2_">
					<use xlink:href="#SVGID_1_"  overflow="visible"/>
				</clipPath>
				<path clip-path="url(#SVGID_2_)" fill="#F05E7E" d="M53.446,56.99c0,1.494-2.01,2.702-4.488,2.702
					c-2.48,0-4.49-1.208-4.49-2.702c0-1.491,2.01-2.701,4.49-2.701C51.437,54.289,53.446,55.499,53.446,56.99"/>
			</g>
			<g>
				<defs>
					<rect id="SVGID_3_" x="14.381" y="54.289" width="39.065" height="6.375"/>
				</defs>
				<clipPath id="SVGID_4_">
					<use xlink:href="#SVGID_3_"  overflow="visible"/>
				</clipPath>
				<path clip-path="url(#SVGID_4_)" fill="#F05E7E" d="M23.358,57.96c0,1.495-2.009,2.702-4.488,2.702
					c-2.48,0-4.489-1.207-4.489-2.702c0-1.492,2.009-2.701,4.489-2.701S23.358,56.468,23.358,57.96"/>
			</g>
		</g>
	</g>
	<path fill="#C81F4B" d="M44.237,64.16c-1.64-0.484-2.922-1.037-4.533-1.602c-2.009-0.709-4.123,0.533-6.144,0.136
		c-2.64-0.524-5.997,0.116-8.453,1.33c-0.087-0.039-0.185-0.011-0.252,0.077c-0.011,0.021-0.029,0.049-0.049,0.068
		c-0.059,0.027-0.116,0.058-0.173,0.086c-0.088,0.049-0.069,0.175,0.009,0.215c-0.021,0.125,0.028,0.251,0.116,0.34
		c3.619,3.822,6.978,9.463,13.102,7.512C39.792,71.701,44.645,64.276,44.237,64.16"/>
	<path fill="#9B1B3E" d="M44.237,64.16c-8.25,5.6-19.382-0.059-19.382-0.059c0.067-0.088,0.165-0.116,0.252-0.077
		c2.456-1.214,5.813-1.854,8.453-1.33c2.021,0.397,4.135-0.845,6.144-0.136C41.315,63.123,42.598,63.673,44.237,64.16"/>
	<path fill="#E38D6C" d="M36.825,55.939c0,1.747-1.386,2.472-2.691,2.472c-1.305,0-2.4-0.944-2.4-2.69
		c0-1.747,1.132-4.291,2.438-4.291C35.476,51.429,36.825,54.191,36.825,55.939"/>
	<g opacity="0.4">
		<g>
			<g>
				<defs>
					<rect id="SVGID_5_" x="13.114" y="34.227" width="16.038" height="11.701"/>
				</defs>
				<clipPath id="SVGID_6_">
					<use xlink:href="#SVGID_5_"  overflow="visible"/>
				</clipPath>
				<path clip-path="url(#SVGID_6_)" fill="#A7C1E1" d="M21.604,34.235c-2.57-0.129-4.727,1.293-6.352,3.146
					c-2.172,2.48-2.26,4.935-2.075,8.076c0.03,0.515,0.823,0.678,0.938,0.127c0.042-0.203,0.073-0.406,0.104-0.607
					c0.051,0.012,0.099,0.025,0.163,0.033c0.637,0.068,0.64-0.828,0.139-1.028c0.903,0.362,0.802,0.157,1.602-0.686
					c1.149-1.208,2.234-2.058,3.954-2.248c2.064-0.229,6.438,0.32,6.567,2.953c0.025,0.501,0.368,0.782,0.841,0.841
					c0.004,0,0.008,0.001,0.012,0.001c0.51,0.069,0.882-0.12,1.072-0.61C30.642,38.889,26.921,34.5,21.604,34.235"/>
			</g>
		</g>
	</g>
	<g opacity="0.4">
		<g>
			<g>
				<defs>
					<rect id="SVGID_7_" x="39.392" y="34.497" width="16.042" height="10.968"/>
				</defs>
				<clipPath id="SVGID_8_">
					<use xlink:href="#SVGID_7_"  overflow="visible"/>
				</clipPath>
				<path clip-path="url(#SVGID_8_)" fill="#A7C1E1" d="M46.23,34.504c-2.759,0.117-4.875,2.192-6.06,4.518
					c-0.801,1.573-1.305,4.184,0.123,5.517c0.34,0.317,0.908-0.09,0.653-0.505c0,0,0-0.002-0.001-0.002
					c0.014-0.007,0.024-0.002,0.037-0.012c2.03-1.518,3.532-2.824,6.219-3.181c2.406-0.32,5.549,1.463,6.256,3.913
					c0.318,1.114,1.89,0.839,1.957-0.266C55.743,39.125,51.745,34.271,46.23,34.504"/>
			</g>
		</g>
	</g>
	<path fill="#3B1312" d="M14.386,42.343c1.795-2.162,4.198-3.107,6.993-3.003c4.865,0.181,8.129,5.076,6.342,9.593
		c-0.114,0.285-0.622,0.28-0.583-0.079c0.368-3.426-2.297-6.695-5.759-6.701c-1.684-0.003-3.161,0.563-4.352,1.738
		c-1.143,1.127-0.874,2.813-1.654,4.095c-0.304,0.499-1.033,0.626-1.452,0.188C12.319,46.49,13.003,44.01,14.386,42.343"/>
	<path fill="#FFFFFF" d="M15.137,47.329c0,3.489,2.871,6.315,6.413,6.315c3.543,0,6.413-2.826,6.413-6.315
		c0-3.488-2.87-6.313-6.413-6.313C18.008,41.015,15.137,43.84,15.137,47.329"/>
	<path fill="#934124" d="M25.779,47.563c0,2.84-1.795,5.143-4.008,5.143c-2.215,0-4.009-2.303-4.009-5.143
		c0-2.838,1.794-5.141,4.009-5.141C23.984,42.422,25.779,44.725,25.779,47.563"/>
	<path fill="#3B1312" d="M25.242,47.563c0,2.459-1.554,4.455-3.471,4.455c-1.919,0-3.471-1.996-3.471-4.455
		c0-2.458,1.552-4.453,3.471-4.453C23.688,43.11,25.242,45.105,25.242,47.563"/>
	<path fill="#FFFFFF" d="M24.801,44.106c0,0.549-0.659,0.995-1.471,0.995s-1.47-0.446-1.47-0.995c0-0.548,0.658-0.996,1.47-0.996
		S24.801,43.558,24.801,44.106"/>
	<path fill="#3B1312" d="M53.758,41.98c-1.795-2.163-4.198-3.108-6.993-3.004c-4.865,0.181-8.13,5.076-6.343,9.593
		c0.115,0.285,0.623,0.28,0.584-0.079c-0.368-3.425,2.297-6.695,5.759-6.7c1.685-0.003,3.161,0.563,4.353,1.738
		c1.143,1.127,0.873,2.813,1.653,4.094c0.304,0.499,1.033,0.627,1.452,0.188C55.825,46.125,55.141,43.647,53.758,41.98"/>
	<path fill="#FFFFFF" d="M39.713,47.329c0,3.489,2.871,6.315,6.414,6.315c3.541,0,6.412-2.826,6.412-6.315
		c0-3.488-2.871-6.313-6.412-6.313C42.584,41.015,39.713,43.84,39.713,47.329"/>
	<path fill="#934124" d="M50.043,47.563c0,2.84-1.795,5.143-4.008,5.143c-2.216,0-4.01-2.303-4.01-5.143
		c0-2.838,1.794-5.141,4.01-5.141C48.249,42.422,50.043,44.725,50.043,47.563"/>
	<path fill="#3B1312" d="M49.506,47.563c0,2.459-1.555,4.455-3.471,4.455c-1.92,0-3.472-1.996-3.472-4.455
		c0-2.458,1.552-4.453,3.472-4.453C47.952,43.11,49.506,45.105,49.506,47.563"/>
	<path fill="#FFFFFF" d="M49.064,44.106c0,0.549-0.659,0.995-1.472,0.995c-0.811,0-1.469-0.446-1.469-0.995
		c0-0.548,0.658-0.996,1.469-0.996C48.405,43.11,49.064,43.558,49.064,44.106"/>
	<path fill="#3B1312" d="M14.262,38.866c0,0,5.46-16.378,14.922,0C29.184,38.866,25.181,32.315,14.262,38.866"/>
	<path fill="#3B1312" d="M39.981,38.866c0,0,5.459-16.378,14.922,0C54.903,38.866,50.9,32.315,39.981,38.866"/>
</g>
</svg>
