<?xml version="1.0" encoding="utf-8"?>
<!-- Generator: Adobe Illustrator 15.0.0, SVG Export Plug-In . SVG Version: 6.00 Build 0)  -->
<!DOCTYPE svg PUBLIC "-//W3C//DTD SVG 1.1//EN" "http://www.w3.org/Graphics/SVG/1.1/DTD/svg11.dtd">
<svg version="1.1" id="Слой_1" xmlns="http://www.w3.org/2000/svg" xmlns:xlink="http://www.w3.org/1999/xlink" x="0px" y="0px"
	 width="79.325px" height="141.732px" viewBox="0 -11.81 79.325 141.732" enable-background="new 0 -11.81 79.325 141.732"
	 xml:space="preserve">
<g>
	<path fill="#C82026" d="M76.495,129.922c0,0-50.426,0-68.307,0c-0.569,0,3.583-17.928,15.449-21.928h0.01
		c0.371,0,0.743-1.301,1.133-1.443c0.897-0.352,1.869-1.141,2.897-1.404c2.411-0.604,5.176,0.133,8.369,0.104l8.5,0.746h0.021
		l6.747-1.646c0,0,1.448-0.535,3.66,0.134c0.028,0,0.058-0.326,0.075-0.326c0.695,0.221,1.468,0.307,2.298,0.641
		c0.198,0.094,0.419,0.094,0.618,0.18c0.65,0.277,1.306,0.557,1.982,0.898c0.744,0.391,1.516,0.816,2.307,1.313
		c0.02,0.012,0.037,0.025,0.058,0.033c0.276,0.172,0.544,0.34,0.812,0.521c5.117,3.518,10.567,9.584,13.371,20.039"/>
	<path fill="#FFFFFF" d="M62.254,107.179l-19.756,13.799l-18.853-14.914c0.372-0.172,0.743-0.333,1.133-0.478
		c0.897-0.354,1.87-0.657,2.897-0.926c2.411-0.6,5.177,0.377,8.369,0.348l8.5,0.986h0.021l6.747-1.645c0,0,1.447-0.535,3.66,0.134
		c0.027,0,0.057-0.327,0.076-0.327c0.695,0.221,1.467,0.307,2.297,0.641c0.199,0.095,0.419,0.095,0.617,0.181
		c0.65,0.276,1.307,0.556,1.982,0.897C60.692,106.267,61.463,106.683,62.254,107.179"/>
	<path fill="#E38D6C" d="M59.947,105.847c-7.6,4.016-17.446,9.733-17.446,9.733s-14.18-9.041-14.822-10.92
		c2.412-0.604,5.175-0.971,8.37-1l15.265-0.656C51.313,103.004,55.159,103.356,59.947,105.847"/>
	<path fill="#E38D6C" d="M34.442,93.213c0,0,1.973,12.06,0.437,15.787c0,0,7.896,3.729,12.938,0.438c0,0-1.535-10.963-1.314-16.443
		L34.442,93.213z"/>
	<path fill="#E38D6C" d="M15.925,61.759c-1.642-3.207-2.388-8.292-5.779-10.34c-4.108-2.485-7.234,2.861-8.87,5.931
		c-1.657,3.108-2.352,8.65,2.051,9.966c3.386,1.015,10.871-1.106,12.892-4.092L15.925,61.759z"/>
	<path fill="#CD6D4E" d="M12.373,58.939c0,0-5.152-7.988-6.955-4.767c-1.804,3.222-1.289,7.341-1.289,7.341s1.032-4.506,4.381-1.93
		c0,0-3.222,7.212,3.349,5.154C11.859,64.737,14.564,62.546,12.373,58.939"/>
	<path fill="#E38D6C" d="M63.399,61.759c1.643-3.207,2.389-8.292,5.779-10.342c4.109-2.483,7.234,2.863,8.869,5.933
		c1.656,3.106,2.354,8.65-2.051,9.968c-3.384,1.011-10.869-1.108-12.891-4.096L63.399,61.759z"/>
	<path fill="#CD6D4E" d="M66.952,58.937c0,0,5.153-7.986,6.957-4.767c1.805,3.222,1.289,7.343,1.289,7.343s-1.031-4.508-4.381-1.93
		c0,0,3.221,7.212-3.35,5.152C67.467,64.735,64.762,62.546,66.952,58.937"/>
	<path fill="#F9B39A" d="M68.374,55.955c-0.096,1.108-0.221,2.214-0.354,3.322c-0.85,7.089-1.869,14.155-3.449,21.099
		c-2.975,13.06-17.451,19.487-22.607,19.051c-26.589-3.991-27.97-24.375-27.781-26.588c0.315-3.469-0.227-7.229-0.429-10.688
		c-0.106-1.841-0.352-3.736-0.581-5.62c-0.114-0.968-0.23-1.947-0.324-2.916c-0.209-2.258-0.285-4.503,0.028-6.684
		c0.019-0.15,0.049-0.299,0.066-0.447c0.497-3.163,1.412-6.42,2.489-9.358c3.375-9.175,8.32-21.734,18.069-21.936
		c2.279-0.053,6.462,2.68,8.709,3.457c3.262,1.098,11.199,0.106,13.955,1.959c6.127,4.14,7.453,11.602,10.512,19.14
		c0.974,2.405,1.516,4.811,1.773,7.257C68.763,49.942,68.659,52.921,68.374,55.955"/>
	<path fill="#A33F23" d="M26.05,9.756c-4.009-1.42-6.835-2.333-10.431,0.378c-3.923,2.959-6.544,7.683-7.7,12.367
		C6.497,28.258,8,34.766,9.418,40.364c1.012,3.997-0.561,9.35,2.032,12.82c0.372,0.498,1.035,0.419,1.265-0.165
		c2.733-6.98,3.256-15.216,4.877-22.54c0.927-4.192,1.166-8.694,3.122-12.576c1.253-2.486,3.393-4.188,4.341-6.832
		c0.021-0.059,0.017-0.11,0.023-0.163c0.208,0.067,0.415,0.133,0.604,0.183C26.554,11.329,26.883,10.05,26.05,9.756"/>
	<path fill="#BE5728" d="M71.766,46.745c-0.354,3.965-3.717,7.548-7.559,4.137c-1.621-1.449-1.592-2.755-0.906-4.765
		c1.439-4.214,1.982-8.245-0.172-12.133c-3.879,5.937-11.254,10.093-15.943,2.697c-2.211-3.488-4.775-0.286-6.787,1.01
		c-0.991,0.638-2.392,0.334-3.44,0.057c-2.383-0.629-3.412-3.66-3.698-5.785c-0.294-2.144-0.266-4.269-0.372-6.424
		c-0.133-2.621-0.076-6.604-3.803-7.319c-2.2-0.419-4.573,0.858-3.507,3.374c1.001,2.354,1.316,5.213-1.753,6.081
		c-6.689,1.877-6.71,8.51-7.548,14.324c-0.343,2.373-0.648,4.794-1.134,7.167c-0.534,0.905-1.249,1.697-2.163,2.268
		c-0.544,0.343-1.038,0.495-1.478,0.505c0-0.028-0.009-0.057-0.009-0.076c-0.353-3.612-0.344-7.358-0.133-10.97
		c0.038-0.677,0.085-1.354,0.142-2.03c0.277-3.64,0.781-7.357,1.697-10.95c0.811-3.231,1.963-6.357,3.603-9.216
		c0.753-1.325,1.609-2.497,2.553-3.536c0.296-0.324,0.592-0.629,0.907-0.925c0.314-0.304,0.646-0.6,0.982-0.877
		c0.466-1.181,1.218-2.229,2.144-3.192c-0.01-0.153-0.019-0.305-0.019-0.458c-0.325-0.753-0.763-1.458-1.479-2.201
		c-1.037-1.096-1.943-2.163-2.554-3.555c-0.189-0.448,0.438-0.849,0.668-0.4c0.714,1.429,2.248,2.716,3.431,4.116
		c0.009-0.237,0.018-0.466,0.018-0.695c0.01-1.534-0.094-3.03-0.361-4.546c-0.076-0.419,0.553-0.763,0.743-0.315
		c0.819,1.906,1.152,4.48,0.953,6.796c0.057-0.039,0.114-0.086,0.171-0.124c-0.086-1.268-0.009-2.555,0.125-3.622
		c0.246-1.954,0.734-3.965,2.477-5.099c0.391-0.257,0.838,0.325,0.495,0.639c-1.952,1.801-2.03,4.488-1.772,7.138
		c2.487-1.639,5.395-2.821,7.872-3.612c0.324-0.105,0.639-0.2,0.944-0.285c0.038-0.011,0.067-0.019,0.104-0.03
		c2.383-0.695,5.12-1.324,7.92-1.648c0.391-0.047,0.789-0.086,1.183-0.115C48.234,1.828,52.2,2.17,55.43,3.848
		c2.096,1.086,3.906,2.544,5.471,4.279c0.504,0.544,0.98,1.125,1.428,1.725c1.642,2.192,2.957,4.718,3.967,7.405
		c0.229,0.591,0.438,1.182,0.638,1.792c1.136,3.517,1.813,7.243,2.087,10.865C71.25,35.251,72.27,41.094,71.766,46.745"/>
	<path fill="#F37549" d="M66.932,19.049c-2.221,3.164-3.678,6.433-6.746,9.102c-2.727,2.373-11.741,6.461-12.973,0.19
		c-0.903-4.584,2.697-9.025-3.896-11.017c-2.975-0.886-6.928-1.916-8.331-5.06c-1.162-2.593-1.373-5.386-0.829-8.035
		c0.324-0.105,0.639-0.201,0.944-0.285c0.038-0.011,0.067-0.02,0.104-0.03c-0.276,1.23-0.371,2.478-0.257,3.689
		c0.601,6.347,5.272,6.871,10.169,8.806c3.002,1.191,4.545,3.021,3.85,6.386c-0.733,3.564,0.753,8.843,5.49,6.928
		c2.114-0.857,4.061-2.011,5.699-3.621c2.506-2.469,3.84-5.375,5.729-8.263c0.134-0.201,0.266-0.391,0.41-0.582
		C66.523,17.848,66.733,18.439,66.932,19.049"/>
	<path fill="#F37549" d="M62.331,9.852c-1.84,3.459-6.558,5.88-10.416,4.166c-4.203-1.869-8.074-6.806-8.789-11.752
		c0.392-0.047,0.791-0.086,1.184-0.115c0.725,3.899,3.488,7.806,6.451,9.675c2.498,1.572,5.746,2.087,8.063-0.21
		c1.135-1.116,1.782-2.26,2.078-3.489C61.405,8.671,61.881,9.252,62.331,9.852"/>
	<path fill="#F37549" d="M17.241,25.149c-4.728,3.859-3.375,8.51-5.632,13.495c-0.04,0.076-0.068,0.152-0.106,0.219
		c0.277-3.641,0.781-7.358,1.696-10.95c0.116-0.23,0.249-0.449,0.391-0.658c2.354-3.441,7.633-5.232,6.292-10.303
		c-0.163-0.6-0.334-1.191-0.526-1.791c0.296-0.325,0.592-0.629,0.906-0.925C21.481,18.201,21.606,21.594,17.241,25.149"/>
	<path fill="#3B1312" d="M23.94,44.462c-3.4,2.063-5.357,7.109-3.38,10.362c0.097,0.159,0.436,0.094,0.412-0.093
		c-0.398-2.893,0.769-6.027,2.957-8.229c1.357-1.362,3.226-1.936,5.26-2.076c2.224-0.155,3.229,1.849,4.978,2.536
		c0.364,0.142,0.819-0.088,0.699-0.458C33.503,42.314,27.369,42.383,23.94,44.462"/>
	<path fill="#FFFFFF" d="M35.776,53.857c0,5.427-3.331,9.825-7.438,9.825c-4.11,0-7.441-4.398-7.441-9.825
		c0-5.428,3.331-9.829,7.441-9.829C32.445,44.028,35.776,48.43,35.776,53.857"/>
	<path fill="#66AEC6" d="M34.197,54.178c0,4.04-2.537,7.316-5.664,7.316c-3.126,0-5.664-3.276-5.664-7.316
		c0-4.041,2.538-7.318,5.664-7.318C31.66,46.86,34.197,50.137,34.197,54.178"/>
	<path fill="#3B1312" d="M33.299,54.264c0,3.41-2.078,6.173-4.643,6.173c-2.564,0-4.644-2.763-4.644-6.173
		c0-3.407,2.08-6.171,4.644-6.171C31.221,48.093,33.299,50.857,33.299,54.264"/>
	<path fill="#FFFFFF" d="M34.197,48.945c0,0.671-1.312,1.215-2.931,1.215c-1.616,0-2.928-0.544-2.928-1.215
		c0-0.672,1.312-1.213,2.928-1.213C32.885,47.732,34.197,48.273,34.197,48.945"/>
	<path fill="#3B1312" d="M58.875,44.462c3.399,2.063,5.355,7.109,3.379,10.362c-0.096,0.159-0.437,0.094-0.412-0.093
		c0.398-2.893-0.77-6.027-2.957-8.229c-1.356-1.362-3.225-1.936-5.26-2.076c-2.224-0.155-3.229,1.849-4.979,2.536
		c-0.361,0.142-0.816-0.088-0.697-0.458C49.311,42.314,55.445,42.383,58.875,44.462"/>
	<path fill="#FFFFFF" d="M61.381,53.857c0,5.427-3.33,9.825-7.438,9.825c-4.109,0-7.441-4.398-7.441-9.825
		c0-5.428,3.332-9.829,7.441-9.829C58.051,44.028,61.381,48.43,61.381,53.857"/>
	<path fill="#66AEC6" d="M59.803,54.178c0,4.04-2.536,7.316-5.664,7.316c-3.126,0-5.664-3.276-5.664-7.316
		c0-4.041,2.538-7.318,5.664-7.318C57.267,46.86,59.803,50.137,59.803,54.178"/>
	<path fill="#3B1312" d="M58.905,54.264c0,3.41-2.078,6.173-4.645,6.173c-2.561,0-4.643-2.763-4.643-6.173
		c0-3.407,2.082-6.171,4.643-6.171C56.827,48.093,58.905,50.857,58.905,54.264"/>
	<path fill="#FFFFFF" d="M59.803,48.945c0,0.671-1.313,1.215-2.932,1.215c-1.617,0-2.929-0.544-2.929-1.215
		c0-0.672,1.312-1.213,2.929-1.213C58.491,47.732,59.803,48.273,59.803,48.945"/>
	<path fill="#E38D6C" d="M48.816,67.706c-1.478-0.92-4.258-1.213-5.94-0.201c-0.004-0.785-0.018-1.563-0.08-2.351
		c-0.112-1.438,0.156-4.53-1.346-5.408c-1.729-1.014-3.132,1.892-3.403,3.113c-0.352,1.585-0.22,3.336,0.019,5.031
		c-0.333-0.271-0.703-0.427-1.112-0.604c-1.1-0.478-2.277-1.084-3.53-0.627c-1.882,0.684-1.822,1.746-0.254,2.94
		c2.693,2.052,5.372,3.905,8.941,3.284c2.787-0.485,5.613-1.606,6.944-4.264C49.222,68.288,49.138,67.909,48.816,67.706"/>
	<path fill="#E38D6C" d="M23.959,79.997c0,0,24.303,18.586,33.834-4.766L23.959,79.997z"/>
	<path fill="#CD6D4E" d="M59.245,75.515c-0.213-0.854-1.975-0.992-2.672-1.132c-0.535-0.104-1.076-0.198-1.602-0.35
		c-0.229-0.066-0.438-0.184-0.66-0.244c-0.012-0.002-0.018-0.002-0.027-0.004c-0.09-0.091-0.074-0.182-0.019-0.295
		c0.185-0.38-0.329-0.682-0.565-0.33c-0.564,0.834,0.238,1.555,0.959,1.969L24.411,79.39c0.549-0.664,1.243-1.343,2.009-1.494
		c0.349-0.069,0.221-0.535-0.078-0.571c-0.168-0.021-0.267-0.172-0.451-0.158c-0.326,0.022-0.624,0.076-0.933,0.186
		c-0.546,0.193-0.974,0.621-1.353,1.045c-0.426,0.477-0.785,1.012-1.196,1.5c-0.377,0.451-0.876,0.82-1.172,1.332
		c-0.155,0.268,0.046,0.58,0.341,0.596c1.068,0.049,1.796-1.076,2.36-1.83c0.094-0.123,0.194-0.254,0.298-0.387
		c4.104,0.445,24.103,2.242,31.956-3.85c0.301,0.092,0.6,0.178,0.906,0.25c0.502,0.117,1.4,0.49,1.873,0.182
		C59.2,76.038,59.312,75.786,59.245,75.515"/>
	<path fill="#89251B" d="M14.373,42.476c-0.479,0.266,10.54-14.42,23.407-2.03C37.78,40.446,20.987,38.787,14.373,42.476"/>
	<path fill="#89251B" d="M42.01,41.999c-0.479,0.267,10.543-14.42,23.406-2.03C65.417,39.969,48.625,38.311,42.01,41.999"/>
</g>
</svg>
