<svg width="32" height="32" viewBox="0 0 32 32" fill="none" xmlns="http://www.w3.org/2000/svg">
<g clip-path="url(#clip0_10_215)">
<path d="M15.8648 1.28894C7.82964 1.28894 1.32153 7.79705 1.32153 15.8322C1.32153 22.2676 5.48454 27.7031 11.2655 29.6301C11.9927 29.7574 12.2653 29.3211 12.2653 28.9393C12.2653 28.5939 12.2472 27.4486 12.2472 26.2306C8.59317 26.9033 7.64785 25.3399 7.35699 24.5218C7.19338 24.1037 6.48439 22.813 5.8663 22.4676C5.35729 22.1949 4.63013 21.5223 5.84812 21.5041C6.99341 21.4859 7.81146 22.5585 8.08415 22.9948C9.39305 25.1944 11.4836 24.5763 12.3199 24.1946C12.4471 23.2493 12.8289 22.613 13.247 22.2494C10.0111 21.8858 6.62982 20.6315 6.62982 15.0687C6.62982 13.4871 7.19338 12.1782 8.12051 11.1602C7.97508 10.7966 7.46606 9.30591 8.26594 7.30622C8.26594 7.30622 9.48394 6.92446 12.2653 8.7969C13.4288 8.46968 14.665 8.30607 15.9012 8.30607C17.1373 8.30607 18.3735 8.46968 19.537 8.7969C22.3184 6.90628 23.5364 7.30622 23.5364 7.30622C24.3363 9.30591 23.8272 10.7966 23.6818 11.1602C24.6089 12.1782 25.1725 13.4689 25.1725 15.0687C25.1725 20.6497 21.773 21.8858 18.5371 22.2494C19.0643 22.7039 19.5188 23.5765 19.5188 24.9399C19.5188 26.8851 19.5006 28.4485 19.5006 28.9393C19.5006 29.3211 19.7733 29.7756 20.5005 29.6301C23.3877 28.6557 25.8966 26.8003 27.674 24.325C29.4513 21.8498 30.4076 18.8795 30.4081 15.8322C30.4081 7.79705 23.9 1.28894 15.8648 1.28894Z" fill="white"/>
</g>
<defs>
<clipPath id="clip0_10_215">
<rect width="29.0865" height="29.0865" fill="white" transform="translate(1.32153 1.28894)"/>
</clipPath>
</defs>
</svg>
