<svg width="45" height="45" viewBox="0 0 45 45" fill="none" xmlns="http://www.w3.org/2000/svg">
<path d="M24.7553 40.3695C24.5425 40.3695 24.329 40.3147 24.1382 40.2045C23.7431 39.9765 23.5049 39.5491 23.52 39.0938L23.7732 31.1741C23.7828 30.8811 23.8957 30.601 24.0925 30.3833L33.2159 20.31C33.4556 20.0455 33.7906 19.9036 34.133 19.9036C34.2964 19.9036 34.4609 19.9358 34.6174 20.003C35.1023 20.21 35.4028 20.7013 35.3657 21.2271L34.4679 33.9389C34.44 34.334 34.2249 34.6915 33.8884 34.9012L25.4101 40.1824C25.2091 40.3071 24.9817 40.3695 24.7553 40.3695Z" fill="#FAA61A"/>
<path d="M34.1314 21.1399L33.2336 33.8517L24.7553 39.133L25.0086 31.2132L34.1314 21.1399ZM34.1319 18.6665C33.4481 18.6665 32.7772 18.9503 32.2988 19.4799L23.1754 29.5532C22.7819 29.9881 22.5555 30.5483 22.5367 31.1342L22.2835 39.054C22.254 39.9657 22.7297 40.8194 23.5205 41.2753C23.9033 41.4957 24.3296 41.6054 24.7553 41.6054C25.2096 41.6054 25.6628 41.4806 26.0628 41.2317L34.541 35.9505C35.2136 35.5317 35.6447 34.8162 35.7006 34.0259L36.5984 21.3141C36.6726 20.2621 36.0721 19.2788 35.1017 18.8649C34.7883 18.7316 34.4582 18.6665 34.1319 18.6665Z" fill="#42210B"/>
<path d="M5.91991 21.5362C5.47909 21.5362 5.07 21.3007 4.84851 20.9174C4.62058 20.5223 4.62917 20.0331 4.87055 19.6466L10.1518 11.1683C10.3615 10.8318 10.719 10.6167 11.1141 10.5888L23.8269 9.68992C23.8565 9.68777 23.8855 9.68671 23.9146 9.68671C24.407 9.68671 24.8559 9.98021 25.051 10.4377C25.258 10.9226 25.1343 11.4855 24.7441 11.8392L14.6697 20.9626C14.4525 21.1593 14.1724 21.2722 13.8794 21.2819C13.88 21.2819 5.93335 21.5362 5.91991 21.5362Z" fill="#FFCB05"/>
<path d="M23.915 10.9227L13.8406 20.0461L5.92091 20.3004L11.2022 11.8221L23.915 10.9227ZM23.9161 8.44983C23.858 8.44983 23.7994 8.45147 23.7408 8.45577L11.028 9.35461C10.2377 9.41052 9.52219 9.84166 9.10341 10.5142L3.82217 18.9925C3.33996 19.7666 3.32274 20.7439 3.77862 21.5347C4.22105 22.3024 5.03926 22.7728 5.92037 22.7728C5.94725 22.7728 5.97359 22.7728 5.99993 22.7717L13.9197 22.5174C14.5056 22.4986 15.0658 22.2723 15.5002 21.8788L25.5745 12.7554C26.3562 12.0474 26.6029 10.9217 26.1895 9.95185C25.7987 9.03634 24.9004 8.44983 23.9161 8.44983Z" fill="#42210B"/>
<path d="M23.5741 31.4595C23.2575 31.4595 22.9414 31.3385 22.7 31.0972L13.8916 22.2899C13.6594 22.0582 13.5293 21.7437 13.5293 21.4158C13.5293 21.0879 13.6594 20.7734 13.8916 20.5417L29.4951 4.94037C31.6519 2.7825 35.5698 1.27563 39.0227 1.27563C40.2361 1.27563 41.3467 1.46056 42.3267 1.82451C42.5074 1.87827 42.674 1.9718 42.8117 2.09921C42.9853 2.25618 43.1127 2.46156 43.1745 2.69057C44.7093 6.86924 42.7772 12.7687 40.0495 15.4959L24.4482 31.0972C24.2074 31.3391 23.8907 31.4595 23.5741 31.4595Z" fill="#FFCB05"/>
<path d="M39.0231 2.51213C40.0682 2.51213 41.0745 2.66643 41.9696 3.01156L41.9739 3.00726C41.9761 3.01049 41.9761 3.01262 41.9761 3.01477C41.9793 3.01477 41.9804 3.01478 41.9825 3.01586L41.9782 3.02016C43.3894 6.67951 41.6078 12.1908 39.1758 14.6223L23.5745 30.2236L14.7661 21.4164L30.3696 5.81506C32.2054 3.97812 35.7987 2.51267 39.0231 2.51213ZM39.0236 0.0392456C35.2686 0.0392456 30.991 1.69553 28.6208 4.06629L13.0174 19.6676C12.554 20.131 12.2932 20.7605 12.2932 21.4164C12.2932 22.0722 12.5534 22.7018 13.0174 23.1652L21.8257 31.9724C22.3085 32.4547 22.9417 32.6966 23.5745 32.6966C24.2078 32.6966 24.84 32.4557 25.3232 31.9724L40.9246 16.3711C43.9818 13.3139 46.0585 6.94616 44.335 2.26109C44.2409 1.96757 44.0942 1.69609 43.9028 1.46009C43.5872 1.06711 43.1604 0.78109 42.6819 0.638092C41.582 0.240278 40.3526 0.0392456 39.0236 0.0392456Z" fill="#42210B"/>
<path d="M41.9817 3.02716C43.3865 6.68759 41.607 12.1914 39.1761 14.6218L23.5748 30.2231L19.1794 25.8278L41.9817 3.02716Z" fill="#FAA61A"/>
<path d="M33.5518 8.6497C32.782 9.4206 32.7831 10.6689 33.5518 11.4387C34.3216 12.2074 35.5699 12.2085 36.3408 11.4387C37.1106 10.6689 37.1096 9.41954 36.3397 8.65079C35.571 7.88096 34.3216 7.87988 33.5518 8.6497Z" stroke="#42210B" stroke-width="2.4547" stroke-miterlimit="10" stroke-linejoin="round"/>
<path d="M14.5767 30.4764L4.05933 40.9943" stroke="white" stroke-width="2.4547" stroke-miterlimit="10" stroke-linecap="round" stroke-linejoin="round"/>
<path d="M9.8563 25.7557L2 33.6125" stroke="white" stroke-width="2.4547" stroke-miterlimit="10" stroke-linecap="round" stroke-linejoin="round"/>
<path d="M19.232 35.1318L11.3762 42.9892" stroke="white" stroke-width="2.4547" stroke-miterlimit="10" stroke-linecap="round" stroke-linejoin="round"/>
<path d="M21.0425 19.6439L26.6871 14.268" stroke="white" stroke-width="2.4547" stroke-miterlimit="10" stroke-linecap="round" stroke-linejoin="round"/>
</svg>
