<svg width="39" height="46" viewBox="0 0 39 46" fill="none" xmlns="http://www.w3.org/2000/svg">
<path d="M8.86572 43.9118C12.8265 43.9118 16.0374 41.0084 16.0374 37.4268C16.0374 33.8452 12.8265 30.9418 8.86572 30.9418C4.90494 30.9418 1.69409 33.8452 1.69409 37.4268C1.69409 41.0084 4.90494 43.9118 8.86572 43.9118Z" fill="#FAA61A" stroke="#42210B" stroke-width="2.82624" stroke-miterlimit="10" stroke-linejoin="round"/>
<path d="M16.0376 37.1534V10.467" stroke="#42210B" stroke-width="2.82624" stroke-miterlimit="10" stroke-linejoin="round"/>
<path d="M29.9106 37.0601C33.8714 37.0601 37.0823 34.1566 37.0823 30.5751C37.0823 26.9935 33.8714 24.0901 29.9106 24.0901C25.9499 24.0901 22.739 26.9935 22.739 30.5751C22.739 34.1566 25.9499 37.0601 29.9106 37.0601Z" fill="#FAA61A" stroke="#42210B" stroke-width="2.82624" stroke-miterlimit="10" stroke-linejoin="round"/>
<path d="M37.0815 29.7806V6.04944" stroke="#42210B" stroke-width="2.82624" stroke-miterlimit="10" stroke-linejoin="round"/>
<path d="M37.0816 9.65904L16.0369 14.4206V9.71187C16.0369 7.669 17.5813 5.87926 19.7739 5.38344L33.3446 2.31266C35.245 1.8832 37.0816 3.17958 37.0816 4.95028V9.65904Z" fill="#FFCB05" stroke="#42210B" stroke-width="2.82624" stroke-miterlimit="10" stroke-linejoin="round"/>
<path d="M8.51807 35.7723C9.55831 35.7723 10.4294 36.4217 10.6638 37.296" stroke="white" stroke-width="2.82624" stroke-miterlimit="10" stroke-linecap="round" stroke-linejoin="round"/>
<path d="M29.8667 28.7496C30.9069 28.7496 31.778 29.3991 32.0124 30.2734" stroke="white" stroke-width="2.82624" stroke-miterlimit="10" stroke-linecap="round" stroke-linejoin="round"/>
</svg>
