<svg width="90" height="33" viewBox="0 0 90 33" fill="none" xmlns="http://www.w3.org/2000/svg">
<path d="M46.4652 9.99652L50.7471 9.71981C50.8448 10.4198 51.0238 10.9408 51.3169 11.3153C51.789 11.9014 52.4403 12.1944 53.3031 12.1944C53.9381 12.1944 54.4428 12.0478 54.7847 11.7386C55.1103 11.4944 55.3057 11.1036 55.3057 10.6967C55.3057 10.3059 55.1266 9.93148 54.8173 9.68727C54.4918 9.39422 53.7266 9.10116 52.5217 8.84065C50.5517 8.40107 49.1354 7.81497 48.305 7.06604C47.4747 6.366 47.0026 5.34026 47.0351 4.24943C47.0351 3.50055 47.263 2.75162 47.6864 2.13292C48.1748 1.43283 48.8423 0.879319 49.64 0.569968C50.503 0.195475 51.7077 0 53.2219 0C55.0779 0 56.4943 0.341896 57.4712 1.04199C58.4481 1.72578 59.0341 2.83285 59.2132 4.34701L54.9803 4.59127C54.8664 3.94003 54.6384 3.4679 54.2639 3.15855C53.8895 2.8492 53.401 2.70273 52.766 2.70273C52.2449 2.70273 51.8543 2.81666 51.5939 3.02832C51.3497 3.22369 51.1869 3.51669 51.2032 3.84234C51.2032 4.08655 51.3334 4.31447 51.5287 4.46099C51.7404 4.65636 52.2449 4.83543 53.0427 4.99826C55.0127 5.42159 56.4128 5.84487 57.2757 6.28445C58.1386 6.72403 58.7573 7.2613 59.1316 7.89625C59.5224 8.54749 59.7177 9.29637 59.7015 10.0615C59.7015 10.9733 59.441 11.885 58.92 12.6502C58.3828 13.448 57.6337 14.0667 56.7546 14.4411C55.8266 14.8481 54.6545 15.0598 53.2544 15.0598C50.7796 15.0598 49.0702 14.5876 48.1096 13.6271C47.149 12.6666 46.5792 11.4618 46.4652 9.99652ZM1.02568 14.8156V0.260615H8.53111C9.91498 0.260615 10.9895 0.374545 11.7221 0.618809C12.4385 0.846775 13.0735 1.31885 13.4967 1.95385C13.9689 2.65388 14.1968 3.46796 14.1805 4.31457C14.2294 5.74729 13.4967 7.11488 12.2432 7.83121C11.7548 8.10797 11.2175 8.30334 10.6639 8.40107C11.0709 8.51506 11.478 8.71043 11.8361 8.93834C12.1128 9.1663 12.3408 9.42671 12.5525 9.70351C12.7967 9.98027 13.0084 10.2896 13.1874 10.6152L15.3691 14.832H10.257L7.84742 10.3548C7.53807 9.7849 7.27757 9.41046 7.03341 9.23144C6.70781 9.00348 6.31708 8.88955 5.92634 8.88955H5.53555V14.7995H1.02568V14.8156ZM5.53545 6.15428H7.44028C7.84727 6.12168 8.23805 6.05659 8.62874 5.95891C8.92179 5.91007 9.1823 5.74724 9.36142 5.50303C9.801 4.91692 9.73581 4.08661 9.1986 3.58189C8.90554 3.33768 8.33568 3.20745 7.52167 3.20745H5.53545V6.15428ZM0 27.2868L4.28185 27.01C4.37954 27.71 4.55855 28.2311 4.85166 28.6055C5.30753 29.1916 5.97502 29.501 6.83793 29.501C7.47288 29.501 7.9776 29.3544 8.31949 29.0451C8.64514 28.7846 8.84051 28.4101 8.84051 28.0033C8.84051 27.6125 8.66144 27.2381 8.35214 26.9939C8.02655 26.7008 7.26132 26.4078 6.04027 26.1473C4.07029 25.7077 2.65387 25.1216 1.82356 24.3726C0.993244 23.6726 0.52107 22.647 0.553666 21.556C0.553666 20.8072 0.781578 20.0581 1.20491 19.4395C1.69333 18.7395 2.36082 18.1859 3.15859 17.8766C4.02155 17.5021 5.22625 17.3068 6.74041 17.3068C8.59641 17.3068 10.0128 17.6487 10.9897 18.3486C11.9666 19.0486 12.5364 20.1395 12.7155 21.6536L8.48248 21.8978C8.36855 21.2464 8.14058 20.7744 7.76614 20.4651C7.40795 20.1558 6.90323 20.0092 6.26829 20.0255C5.74727 20.0255 5.35659 20.1393 5.09608 20.3674C4.83557 20.5626 4.68904 20.8558 4.70534 21.1814C4.70534 21.4256 4.83557 21.6536 5.03089 21.8C5.24255 21.9953 5.74727 22.1744 6.54499 22.3372C8.51502 22.7605 9.91514 23.1839 10.778 23.6234C11.6409 24.0631 12.2596 24.6004 12.634 25.2352C13.0247 25.8866 13.2201 26.6355 13.2201 27.3843C13.2201 28.296 12.9433 29.1915 12.4386 29.9566C11.9013 30.7544 11.1524 31.3731 10.2732 31.7475C9.34523 32.1545 8.17307 32.3662 6.77295 32.3662C4.2982 32.3662 2.58879 31.8941 1.62814 30.9335C0.66749 29.9568 0.130228 28.752 0 27.2868Z" fill="white"/>
<path d="M21.6534 26.1471L25.5933 27.3356C25.3817 28.3289 24.942 29.273 24.3398 30.1034C23.7862 30.8361 23.0535 31.4058 22.2233 31.7802C21.3767 32.1547 20.3021 32.3501 18.9997 32.3501C17.4204 32.3501 16.118 32.1221 15.1249 31.6663C14.1155 31.2105 13.2525 30.3964 12.5199 29.2405C11.7873 28.0845 11.4291 26.603 11.4291 24.7958C11.4291 22.3862 12.0641 20.5303 13.3503 19.244C14.6364 17.9579 16.4436 17.3068 18.788 17.3068C20.6277 17.3068 22.0604 17.6811 23.1187 18.4138C24.1606 19.1627 24.9421 20.3023 25.4632 21.8327L21.4907 22.7118C21.393 22.3699 21.2465 22.0281 21.0511 21.735C20.8069 21.3931 20.4976 21.1326 20.1231 20.9372C19.7487 20.742 19.3253 20.6605 18.9021 20.6605C17.8764 20.6605 17.095 21.0675 16.5576 21.8979C16.1506 22.5003 15.9389 23.4608 15.9389 24.7633C15.9389 26.3751 16.1832 27.4822 16.6716 28.0846C17.16 28.687 17.8438 28.9801 18.7393 28.9801C19.6022 28.9801 20.2533 28.7358 20.693 28.2637C21.1324 27.7589 21.458 27.0588 21.6534 26.1471ZM30.852 17.5508H35.3455V22.6469H40.2623V17.5508H44.7883V32.106H40.2623V26.2122H35.3455V32.1058H30.852V17.5508Z" fill="white"/>
<path d="M44.1697 24.8283C44.1697 22.4513 44.8372 20.5953 46.1559 19.2766C47.4747 17.9578 49.3307 17.2903 51.6913 17.2903C54.1173 17.2903 55.9733 17.9417 57.2919 19.244C58.6107 20.5465 59.262 22.3699 59.262 24.7144C59.262 26.424 58.9689 27.8077 58.3991 28.8985C57.8455 29.9731 56.9826 30.8522 55.9244 31.4383C54.8336 32.0407 53.4823 32.35 51.8705 32.35C50.2261 32.35 48.8748 32.0895 47.8002 31.5685C46.6932 31.015 45.7815 30.152 45.1791 29.0937C44.5116 27.9542 44.1697 26.5378 44.1697 24.8283ZM48.6631 24.8446C48.6631 26.3099 48.9399 27.3681 49.4773 28.0194C50.0145 28.6543 50.7635 28.9799 51.7077 28.9799C52.6682 28.9799 53.4172 28.6706 53.9544 28.0356C54.4917 27.4007 54.7521 26.2773 54.7521 24.6492C54.7521 23.2815 54.4754 22.2723 53.9219 21.6536C53.3683 21.0187 52.6195 20.7093 51.6752 20.7093C50.8449 20.6767 50.047 21.0349 49.4935 21.6697C48.9399 22.3048 48.6631 23.3631 48.6631 24.8446ZM63.8695 24.8283C63.8695 22.4513 64.5369 20.5953 65.8557 19.2766C67.1745 17.9578 69.0305 17.2903 71.3911 17.2903C73.8169 17.2903 75.6893 17.9417 76.9917 19.244C78.2942 20.5465 78.9618 22.3699 78.9618 24.7144C78.9618 26.424 78.6686 27.8077 78.0988 28.8985C77.5453 29.9731 76.6824 30.8522 75.6241 31.4383C74.5333 32.0407 73.182 32.35 71.5703 32.35C69.9259 32.35 68.5746 32.0895 67.5 31.5685C66.3929 31.015 65.4813 30.152 64.8788 29.0937C64.2114 27.9542 63.8695 26.5378 63.8695 24.8283ZM68.3629 24.8446C68.3629 26.3099 68.6397 27.3681 69.1769 28.0194C69.7143 28.6543 70.4632 28.9799 71.4074 28.9799C72.3679 28.9799 73.117 28.6706 73.6542 28.0356C74.1914 27.4007 74.4519 26.2773 74.4519 24.6492C74.4519 23.2815 74.1752 22.2723 73.6216 21.6536C73.0681 21.0187 72.3192 20.7093 71.3748 20.7093C70.5446 20.6767 69.7305 21.0349 69.1932 21.6697C68.6397 22.3048 68.3629 23.3631 68.3629 24.8446Z" fill="white"/>
<path d="M78.4895 17.5508H82.983V28.5241H90V32.1059H78.4733V17.5508H78.4895Z" fill="white"/>
</svg>
