<svg width="180" height="71" viewBox="0 0 180 71" fill="none" xmlns="http://www.w3.org/2000/svg">
<path d="M95.9963 51.375V26.525H102.821V45.425H114.091V51.375H95.9963ZM121.44 51.725C120.53 51.725 119.678 51.5733 118.885 51.27C118.092 50.9667 117.403 50.5583 116.82 50.045C116.26 49.5083 115.817 48.8783 115.49 48.155C115.163 47.4317 115 46.65 115 45.81C115 44.8767 115.198 44.025 115.595 43.255C115.992 42.485 116.54 41.82 117.24 41.26C117.94 40.7 118.768 40.2683 119.725 39.965C120.705 39.6617 121.778 39.51 122.945 39.51C124.438 39.51 125.675 39.7433 126.655 40.21V39.65C126.655 38.7867 126.398 38.145 125.885 37.725C125.395 37.305 124.59 37.095 123.47 37.095C122.42 37.095 121.452 37.27 120.565 37.62C119.678 37.9467 118.745 38.4367 117.765 39.09L115.84 34.96C118.267 33.3967 121.032 32.615 124.135 32.615C127.075 32.615 129.338 33.2683 130.925 34.575C132.512 35.8817 133.305 37.8417 133.305 40.455V44.025C133.305 44.655 133.398 45.0983 133.585 45.355C133.772 45.5883 134.098 45.7283 134.565 45.775V51.375C134.028 51.4917 133.515 51.5733 133.025 51.62C132.558 51.69 132.138 51.725 131.765 51.725C130.575 51.725 129.665 51.515 129.035 51.095C128.428 50.6517 128.032 50.01 127.845 49.17L127.705 48.505C126.888 49.555 125.943 50.36 124.87 50.92C123.797 51.4567 122.653 51.725 121.44 51.725ZM123.435 46.965C123.832 46.965 124.24 46.9067 124.66 46.79C125.08 46.65 125.453 46.475 125.78 46.265C126.037 46.0783 126.247 45.88 126.41 45.67C126.573 45.4367 126.655 45.2033 126.655 44.97V43.605C126.258 43.465 125.827 43.3483 125.36 43.255C124.893 43.1617 124.473 43.115 124.1 43.115C123.283 43.115 122.607 43.3133 122.07 43.71C121.533 44.1067 121.265 44.6083 121.265 45.215C121.265 45.7283 121.463 46.1483 121.86 46.475C122.28 46.8017 122.805 46.965 123.435 46.965ZM155.482 51.375H148.832V41.015C148.832 40.105 148.622 39.4517 148.202 39.055C147.805 38.635 147.339 38.425 146.802 38.425C146.242 38.425 145.647 38.67 145.017 39.16C144.387 39.65 143.92 40.28 143.617 41.05V51.375H136.967V32.965H142.952V35.695C143.605 34.6917 144.515 33.9333 145.682 33.42C146.872 32.8833 148.272 32.615 149.882 32.615C151.142 32.615 152.134 32.8483 152.857 33.315C153.604 33.7583 154.164 34.3183 154.537 34.995C154.934 35.6717 155.19 36.395 155.307 37.165C155.424 37.935 155.482 38.635 155.482 39.265V51.375ZM165.775 51.375C164.585 51.375 163.489 51.1417 162.485 50.675C161.505 50.185 160.665 49.5317 159.965 48.715C159.265 47.875 158.717 46.895 158.32 45.775C157.947 44.655 157.76 43.4417 157.76 42.135C157.76 40.7583 157.97 39.4867 158.39 38.32C158.81 37.1533 159.394 36.15 160.14 35.31C160.91 34.47 161.82 33.8167 162.87 33.35C163.92 32.86 165.075 32.615 166.335 32.615C167.665 32.615 168.832 32.8833 169.835 33.42C170.839 33.9333 171.632 34.6917 172.215 35.695V32.965H177.99V49.695C177.99 51.1417 177.722 52.4483 177.185 53.615C176.649 54.7817 175.89 55.7733 174.91 56.59C173.93 57.4067 172.752 58.0367 171.375 58.48C169.999 58.9467 168.47 59.18 166.79 59.18C164.83 59.18 163.127 58.8767 161.68 58.27C160.234 57.6633 158.95 56.7883 157.83 55.645L161.33 52.005C162.007 52.635 162.812 53.16 163.745 53.58C164.702 54.0233 165.717 54.245 166.79 54.245C167.397 54.245 167.969 54.1633 168.505 54C169.065 53.8367 169.555 53.5683 169.975 53.195C170.395 52.845 170.722 52.3783 170.955 51.795C171.212 51.2117 171.34 50.5117 171.34 49.695V48.505C170.804 49.485 170.034 50.2083 169.03 50.675C168.05 51.1417 166.965 51.375 165.775 51.375ZM168.155 46.125C168.832 46.125 169.415 45.9733 169.905 45.67C170.419 45.3433 170.897 44.865 171.34 44.235V40.945C171.014 40.105 170.524 39.44 169.87 38.95C169.24 38.46 168.575 38.215 167.875 38.215C167.409 38.215 166.965 38.3317 166.545 38.565C166.149 38.775 165.799 39.0667 165.495 39.44C165.192 39.79 164.959 40.2217 164.795 40.735C164.632 41.225 164.55 41.75 164.55 42.31C164.55 43.4533 164.889 44.375 165.565 45.075C166.242 45.775 167.105 46.125 168.155 46.125Z" fill="white"/>
<rect width="86" height="71" fill="#AE312B"/>
<path d="M15.9082 52V18.1502H31.4505C33.1033 18.1502 34.6289 18.4998 36.0274 19.1991C37.4259 19.8665 38.6178 20.7565 39.6031 21.8689C40.6202 22.9496 41.4148 24.205 41.9869 25.6353C42.559 27.0338 42.845 28.4482 42.845 29.8784C42.845 31.849 42.4159 33.6925 41.5578 35.4088C40.6996 37.0934 39.5077 38.476 37.9821 39.5566L45.1335 52H34.6448L28.6853 41.6067H25.205V52H15.9082ZM25.205 33.5018H31.0691C31.6412 33.5018 32.1657 33.184 32.6424 32.5483C33.151 31.9126 33.4052 31.0227 33.4052 29.8784C33.4052 28.7024 33.1192 27.8125 32.5471 27.2086C31.975 26.5729 31.4028 26.2551 30.8307 26.2551H25.205V33.5018ZM68.5806 29.211C67.6271 28.6389 66.6418 28.1303 65.6247 27.6854C64.7666 27.304 63.7972 26.9543 62.7165 26.6365C61.6676 26.2869 60.6347 26.1121 59.6176 26.1121C58.7912 26.1121 58.1237 26.2392 57.6152 26.4935C57.1384 26.7477 56.9001 27.1768 56.9001 27.7807C56.9001 28.2257 57.0431 28.5912 57.3292 28.8773C57.6152 29.1633 58.0284 29.4335 58.5687 29.6877C59.109 29.9102 59.7606 30.1327 60.5234 30.3552C61.318 30.5777 62.208 30.8479 63.1933 31.1657C64.7507 31.6424 66.1492 32.1669 67.3887 32.739C68.6601 33.3111 69.7407 33.9945 70.6307 34.789C71.5206 35.5519 72.204 36.4895 72.6807 37.6019C73.1575 38.7144 73.3959 40.0652 73.3959 41.6544C73.3959 43.6885 73.0145 45.4049 72.2517 46.8033C71.5206 48.17 70.5353 49.2666 69.2958 50.093C68.088 50.9193 66.7054 51.5232 65.148 51.9046C63.6224 52.2543 62.0808 52.4291 60.5234 52.4291C59.2839 52.4291 58.0125 52.3337 56.7094 52.143C55.4062 51.9523 54.1031 51.6822 52.8 51.3325C51.5286 50.9829 50.289 50.5697 49.0812 50.093C47.9052 49.6162 46.8087 49.0759 45.7916 48.472L49.7964 40.3194C50.9088 41.0187 52.0689 41.6385 53.2767 42.1788C54.2938 42.6555 55.438 43.0846 56.7094 43.466C58.0125 43.8474 59.3315 44.0381 60.6665 44.0381C61.6835 44.0381 62.3828 43.911 62.7642 43.6567C63.1774 43.3707 63.384 43.0052 63.384 42.5602C63.384 42.0834 63.1774 41.6861 62.7642 41.3683C62.3828 41.0187 61.8425 40.7167 61.1432 40.4625C60.444 40.2082 59.6335 39.9539 58.7117 39.6997C57.8218 39.4454 56.8683 39.1434 55.8512 38.7938C54.3574 38.2853 53.0701 37.7449 51.9895 37.1728C50.9088 36.5689 50.0189 35.9015 49.3196 35.1705C48.6204 34.4076 48.0959 33.5495 47.7463 32.596C47.4285 31.6424 47.2696 30.5459 47.2696 29.3063C47.2696 27.4311 47.6033 25.7783 48.2708 24.3481C48.97 22.9178 49.9076 21.7259 51.0836 20.7724C52.2596 19.8189 53.5945 19.1037 55.0884 18.627C56.614 18.1184 58.2191 17.8642 59.9036 17.8642C61.1432 17.8642 62.351 17.9913 63.527 18.2456C64.703 18.468 65.8313 18.77 66.912 19.1514C68.0244 19.501 69.0574 19.8983 70.0109 20.3433C70.9644 20.7565 71.8226 21.1538 72.5854 21.5352L68.5806 29.211Z" fill="white"/>
</svg>
