<?xml version="1.0" encoding="utf-8"?>
<!-- Generator: Adobe Illustrator 15.0.0, SVG Export Plug-In . SVG Version: 6.00 Build 0)  -->
<!DOCTYPE svg PUBLIC "-//W3C//DTD SVG 1.1//EN" "http://www.w3.org/Graphics/SVG/1.1/DTD/svg11.dtd">
<svg version="1.1" id="Слой_1" xmlns="http://www.w3.org/2000/svg" xmlns:xlink="http://www.w3.org/1999/xlink" x="0px" y="0px"
	 width="1215.442px" height="33.75px" viewBox="2.277 11.25 1215.442 33.75" enable-background="new 2.277 11.25 1215.442 33.75"
	 xml:space="preserve">
<g>
	<path fill="#EC990E" d="M17,45L2.277,11.25h29.445L17,45z"/>
	<path fill="#CDC1A2" d="M73.5,45L58.345,11.25h30.311L73.5,45z"/>
	<path fill="#B59565" d="M130,45l-14.722-33.75h29.444L130,45z"/>
	<path fill="#FAA61A" d="M186.5,45l-15.155-33.75h30.311L186.5,45z"/>
	<path fill="#AE312B" d="M243,45l-14.722-33.75h29.444L243,45z"/>
	<path fill="#FFCB05" d="M299.5,45l-15.155-33.75h30.311L299.5,45z"/>
	<path fill="#CDC1A2" d="M1090,45l-14.72-33.75h29.439L1090,45z"/>
	<path fill="#CDC1A2" d="M751,45l-14.722-33.75h29.443L751,45z"/>
	<path fill="#CDC1A2" d="M412,45l-14.722-33.75h29.444L412,45z"/>
	<path fill="#B59565" d="M1146.5,45l-15.16-33.75h30.32L1146.5,45z"/>
	<path fill="#B59565" d="M807.5,45l-15.155-33.75h30.311L807.5,45z"/>
	<path fill="#B59565" d="M468.5,45l-15.155-33.75h30.311L468.5,45z"/>
	<path fill="#FAA61A" d="M1203,45l-14.72-33.75h29.439L1203,45z"/>
	<path fill="#FAA61A" d="M864,45l-14.722-33.75h29.443L864,45z"/>
	<path fill="#FAA61A" d="M525,45l-14.722-33.75h29.443L525,45z"/>
	<path fill="#AE312B" d="M920.5,45l-15.155-33.75h30.311L920.5,45z"/>
	<path fill="#AE312B" d="M581.5,45l-15.155-33.75h30.311L581.5,45z"/>
	<path fill="#FFCB05" d="M977,45l-14.722-33.75h29.443L977,45z"/>
	<path fill="#FFCB05" d="M638,45l-14.722-33.75h29.443L638,45z"/>
	<path fill="#EC990E" d="M694.5,45l-15.155-33.75h30.311L694.5,45z"/>
	<path fill="#EC990E" d="M1033.5,45l-15.16-33.75h30.32L1033.5,45z"/>
	<path fill="#EC990E" d="M356,45l-14.722-33.75h29.444L356,45z"/>
</g>
</svg>
