<?xml version="1.0" encoding="utf-8"?>
<!-- Generator: Adobe Illustrator 15.0.0, SVG Export Plug-In . SVG Version: 6.00 Build 0)  -->
<!DOCTYPE svg PUBLIC "-//W3C//DTD SVG 1.1//EN" "http://www.w3.org/Graphics/SVG/1.1/DTD/svg11.dtd">
<svg version="1.1" id="Layer_1" xmlns="http://www.w3.org/2000/svg" xmlns:xlink="http://www.w3.org/1999/xlink" x="0px" y="0px"
	 width="1700.79px" height="850.391px" viewBox="0 0 1700.79 850.391" enable-background="new 0 0 1700.79 850.391"
	 xml:space="preserve">
<title>rs_school_js</title>
<path d="M878.084,318.588l80.918-5.23c1.846,13.23,5.23,23.075,10.768,30.151c8.922,11.076,21.229,16.614,37.535,16.614
	c12,0,21.537-2.769,27.998-8.614c6.154-4.615,9.846-11.999,9.846-19.691c0-7.384-3.385-14.46-9.23-19.075
	c-6.152-5.538-20.613-11.076-43.381-15.999c-37.229-8.307-63.994-19.383-79.686-33.536c-15.691-13.229-24.613-32.613-23.998-53.227
	c0-14.152,4.307-28.305,12.307-39.997c9.23-13.23,21.844-23.69,36.92-29.536c16.307-7.077,39.074-10.769,67.688-10.769
	c35.074,0,61.84,6.461,80.301,19.691c18.461,12.922,29.537,33.843,32.92,62.457l-79.992,4.615
	c-2.154-12.307-6.461-21.229-13.539-27.075c-7.076-5.846-16.305-8.614-28.305-8.614c-9.846,0-17.229,2.153-22.152,6.153
	c-4.615,3.692-7.691,9.23-7.383,15.383c0,4.615,2.461,8.922,6.152,11.691c4,3.692,13.537,7.076,28.613,10.153
	c37.229,8,63.688,15.999,79.994,24.306c16.307,8.307,27.998,18.46,35.074,30.459c7.383,12.307,11.076,26.459,10.768,40.919
	c0,17.229-4.922,34.459-14.768,48.92c-10.152,15.075-24.307,26.767-40.92,33.843c-17.537,7.692-39.689,11.691-66.148,11.691
	c-46.766,0-79.07-8.922-97.223-27.074C891.006,369.046,880.239,346.278,878.084,318.588z M19.383,409.658V134.603h141.835
	c26.152,0,46.458,2.153,60.303,6.769c13.538,4.308,25.537,13.229,33.536,25.229c8.922,13.229,13.229,28.613,12.922,44.612
	c0.923,27.075-12.922,52.919-36.612,66.456c-9.23,5.23-19.383,8.922-29.844,10.769c7.692,2.154,15.384,5.846,22.152,10.153
	c5.23,4.307,9.538,9.229,13.538,14.46c4.615,5.23,8.615,11.076,11.999,17.229l41.228,79.687h-96.608l-45.535-84.609
	c-5.846-10.769-10.768-17.845-15.383-21.229c-6.153-4.308-13.537-6.461-20.921-6.461h-7.384v111.684H19.383V409.658z
	 M104.607,245.979h35.997c7.691-0.616,15.076-1.846,22.459-3.692c5.538-0.923,10.461-4,13.845-8.615
	c8.307-11.076,7.076-26.767-3.077-36.305c-5.538-4.615-16.306-7.076-31.69-7.076h-37.535V245.979z M0,645.332l80.917-5.23
	c1.846,13.229,5.23,23.075,10.768,30.151c8.615,11.076,21.229,16.922,37.536,16.922c11.999,0,21.537-2.77,27.998-8.615
	c6.154-4.923,9.846-11.999,9.846-19.69c0-7.384-3.384-14.46-9.23-19.075c-6.153-5.538-20.614-11.076-43.689-15.999
	c-37.228-8.307-63.995-19.383-79.686-33.536c-15.691-13.229-24.614-32.612-23.998-53.227c0-14.152,4.307-28.306,12.307-39.997
	c9.23-13.229,21.844-23.69,36.92-29.536c16.307-7.076,39.074-10.768,67.687-10.768c35.074,0,61.841,6.461,80.302,19.69
	c18.46,13.229,29.228,33.844,32.613,62.457l-79.994,4.614c-2.153-12.307-6.461-21.229-13.537-27.074
	c-6.769-5.846-16.307-8.615-28.306-8.308c-9.845,0-17.229,2.154-22.152,6.462c-4.923,3.691-7.692,9.229-7.384,15.383
	c0,4.615,2.461,8.923,6.153,11.691c4,3.692,13.538,7.076,28.613,10.153c37.228,7.999,63.688,15.999,79.994,24.306
	c16.307,8.307,27.998,18.46,35.074,30.459c7.384,12.307,11.076,26.46,11.076,40.612c0,17.229-5.23,34.151-14.768,48.611
	c-10.153,15.076-24.306,26.768-40.92,33.844c-17.537,7.691-39.689,11.691-66.148,11.691c-46.766,0-79.071-8.922-97.224-27.075
	C12.614,695.789,2.461,673.021,0,645.332L0,645.332z"/>
<path d="M409.199,623.795l74.456,22.46c-3.999,18.768-12.307,36.612-23.69,52.304c-10.461,13.845-24.306,24.613-39.997,31.689
	c-15.999,7.076-36.305,10.769-60.918,10.769c-29.844,0-54.457-4.308-73.225-12.922c-19.075-8.615-35.382-23.998-49.227-45.843
	c-13.845-21.845-20.614-49.842-20.614-83.993c0-45.535,12-80.609,36.305-104.915s58.457-36.612,102.761-36.612
	c34.766,0,61.841,7.076,81.839,20.921c19.691,14.153,34.459,35.689,44.305,64.61l-75.071,16.614
	c-1.846-6.461-4.615-12.922-8.307-18.46c-4.615-6.461-10.46-11.384-17.537-15.076c-7.076-3.691-15.076-5.23-23.075-5.23
	c-19.383,0-34.151,7.692-44.305,23.383c-7.691,11.384-11.691,29.536-11.691,54.15c0,30.459,4.615,51.38,13.845,62.764
	s22.152,16.922,39.074,16.922c16.307,0,28.613-4.615,36.92-13.537C399.354,654.254,405.507,641.024,409.199,623.795L409.199,623.795
	z M583.031,461.346h84.917v96.301h92.915v-96.301h85.532v275.056h-85.532V625.025h-92.915v111.376h-84.917V461.346L583.031,461.346z
	"/>
<path d="M834.704,598.874c0-44.92,12.614-79.994,37.535-104.915c24.922-24.921,59.996-37.535,104.607-37.535
	c45.844,0,80.918,12.307,105.838,36.92c24.922,24.613,37.229,59.072,37.229,103.376c0,32.306-5.539,58.457-16.307,79.071
	c-10.461,20.306-26.768,36.92-46.766,47.996c-20.613,11.384-46.15,17.229-76.609,17.229c-31.074,0-56.611-4.923-76.918-14.769
	c-20.92-10.46-38.15-26.767-49.533-46.766C841.165,657.946,834.704,631.179,834.704,598.874z M919.62,599.182
	c0,27.69,5.23,47.688,15.385,59.995c10.152,11.999,24.305,18.152,42.15,18.152c18.152,0,32.305-5.846,42.457-17.845
	c10.154-11.999,15.076-33.229,15.076-63.995c0-25.844-5.23-44.919-15.691-56.61c-10.461-11.999-24.613-17.845-42.457-17.845
	c-15.691-0.616-30.768,6.153-41.229,18.152S919.62,571.184,919.62,599.182L919.62,599.182z M1206.983,598.874
	c0-44.92,12.613-79.994,37.535-104.915s59.996-37.535,104.607-37.535c45.842,0,81.225,12.307,105.838,36.92
	s37.229,59.072,37.229,103.376c0,32.306-5.539,58.457-16.307,79.071c-10.461,20.306-26.768,36.92-46.766,47.996
	c-20.615,11.384-46.15,17.229-76.609,17.229c-31.074,0-56.611-4.923-76.918-14.769c-20.922-10.46-38.15-26.767-49.535-46.766
	C1213.444,657.946,1206.983,631.179,1206.983,598.874z M1291.899,599.182c0,27.69,5.23,47.688,15.383,59.995
	c10.154,11.999,24.307,18.152,42.15,18.152c18.152,0,32.307-5.846,42.459-17.845s15.076-33.229,15.076-63.995
	c0-25.844-5.23-44.919-15.691-56.61c-10.461-11.999-24.613-17.845-42.459-17.845c-15.691-0.616-31.074,6.153-41.227,18.152
	C1297.129,551.186,1291.899,571.184,1291.899,599.182L1291.899,599.182z"/>
<path d="M1483.268,461.346h84.918v207.369h132.604v67.687h-217.828V461.346H1483.268z"/>
<path d="M1448.555,201.541c-52.973-70.294-165.221-75.051-250.713-10.625c-85.492,64.425-111.855,173.637-58.883,243.931
	s165.221,75.052,250.713,10.626S1501.528,271.835,1448.555,201.541z M1289.438,381.66c-4,9.229-10.461,16.922-19.076,22.46
	c-10.152,7.076-18.768,11.076-26.152,12.307c-7.076,1.23-14.459,0-21.229-3.077c-7.385-3.691-13.846-8.922-18.768-15.69
	l26.459-24.614c2.154,3.385,4.924,6.461,8,8.923c2.154,1.538,4.615,2.461,7.385,2.461c2.152,0,4.307-0.923,5.846-2.153
	c3.076-1.846,5.23-5.538,4.922-9.23c-0.924-5.229-3.076-10.46-6.461-14.46l-43.074-60.61l30.768-21.537l37.844,53.842
	c6.461,8.615,11.383,17.845,15.074,27.998C1293.129,365.969,1292.514,374.276,1289.438,381.66z M1391.276,313.357
	c-5.537,8.308-12.615,15.384-20.922,20.922c-16.922,11.691-30.766,16.614-41.842,14.768c-12-1.846-21.846-7.999-28.922-16.922
	l27.998-22.151c3.076,3.691,7.076,6.461,11.385,7.999c6.152,1.846,12.613,0.615,17.844-3.385c3.691-2.461,6.77-5.846,8-10.152
	c1.846-5.538-1.23-11.691-6.77-13.538c-0.922-0.308-1.846-0.615-2.77-0.615c-3.691-0.308-10.152,1.23-19.689,5.23
	c-15.691,6.461-27.998,8.923-37.229,8c-8.922-0.924-17.229-5.538-22.152-13.23c-3.691-5.23-5.537-11.384-5.846-17.537
	c0-7.077,1.846-14.153,5.846-19.999c5.846-8.307,12.922-15.383,21.537-20.921c12.922-8.922,24.307-13.23,34.15-13.23
	c9.846,0,19.076,4.615,27.691,14.153l-27.691,21.844c-5.537-7.076-15.998-8.614-23.074-3.077l-0.924,0.923
	c-3.076,1.846-5.23,4.615-6.461,7.999c-0.922,2.461-0.307,5.23,1.23,7.384c1.232,1.539,3.078,2.769,5.23,2.769
	c2.463,0.308,6.77-0.923,12.922-3.692c15.385-6.461,27.076-10.153,35.074-11.384c6.77-1.231,13.846-0.615,20.307,2.154
	c5.846,2.461,10.77,6.769,14.152,11.999c4.309,6.153,6.77,13.537,7.076,21.229C1397.737,298.897,1395.583,306.589,1391.276,313.357z
	"/>
</svg>
