<?xml version="1.0" encoding="utf-8"?>
<!-- Generator: Adobe Illustrator 15.0.0, SVG Export Plug-In . SVG Version: 6.00 Build 0)  -->
<!DOCTYPE svg PUBLIC "-//W3C//DTD SVG 1.1//EN" "http://www.w3.org/Graphics/SVG/1.1/DTD/svg11.dtd">
<svg version="1.1" id="Слой_1" xmlns="http://www.w3.org/2000/svg" xmlns:xlink="http://www.w3.org/1999/xlink" x="0px" y="0px"
	 width="39px" height="28px" viewBox="0 0 39 28" enable-background="new 0 0 39 28" xml:space="preserve">
<path fill="none" stroke="#C7BCAB" stroke-width="2.0394" stroke-linecap="round" stroke-linejoin="round" stroke-miterlimit="10" d="
	M5.306,11.118h3.532"/>
<path fill="none" stroke="#C7BCAB" stroke-width="2.0394" stroke-linecap="round" stroke-linejoin="round" stroke-miterlimit="10" d="
	M13.559,8.716l2.691-2.29"/>
<path fill="#C7BCAB" d="M17.357,2.04c1.184,0,2.27,0.946,2.27,2.269v18.494c0,1.322-1.085,2.27-2.27,2.27
	c-0.378,0-0.765-0.096-1.131-0.307l-6.677-5.834l-4.895-0.001c-1.444,0-2.615-1.171-2.615-2.616v-5.518
	c0-1.445,1.171-2.616,2.615-2.616h4.895l6.677-5.833C16.591,2.135,16.979,2.04,17.357,2.04z M17.357,0C17.357,0,17.357,0,17.357,0
	c-0.749,0-1.492,0.2-2.15,0.58c-0.115,0.066-0.224,0.144-0.323,0.231l-6.101,5.33H4.654C2.088,6.141,0,8.229,0,10.796v5.519
	c0,2.566,2.088,4.655,4.654,4.655l4.129,0.001l6.101,5.33c0.1,0.087,0.208,0.164,0.323,0.23c0.658,0.38,1.401,0.58,2.15,0.58
	c2.376,0,4.309-1.933,4.309-4.31V4.308C21.666,1.933,19.733,0,17.357,0z"/>
<path fill="none" stroke="#C7BCAB" stroke-width="2.2168" stroke-linecap="round" stroke-linejoin="round" stroke-miterlimit="10" d="
	M25.691,10.245c0.652,0.94,1.031,2.069,1.031,3.281c0,1.216-0.383,2.349-1.037,3.29"/>
<path fill="none" stroke="#C7BCAB" stroke-width="2.2168" stroke-linecap="round" stroke-linejoin="round" stroke-miterlimit="10" d="
	M29.223,5.994c1.66,1.758,2.671,4.975,2.671,7.532c0,2.582-1.031,5.82-2.721,7.583"/>
<path fill="none" stroke="#C7BCAB" stroke-width="2.2168" stroke-linecap="round" stroke-linejoin="round" stroke-miterlimit="10" d="
	M32.66,2.765C35.338,5.272,37,9.656,37,13.526c0,3.901-1.689,8.308-4.402,10.821"/>
</svg>
